<svg width="40" height="40" viewBox="0 0 40 40" fill="none" xmlns="http://www.w3.org/2000/svg">
<path fill-rule="evenodd" clip-rule="evenodd" d="M20 40C31.0457 40 40 31.0457 40 20C40 8.9543 31.0457 0 20 0C8.9543 0 0 8.9543 0 20C0 31.0457 8.9543 40 20 40ZM19.3534 28.9886C19.3534 28.4175 18.9035 28.0022 18.4036 28.0022C17.9037 28.0022 17.4538 28.4175 17.4538 28.9886C17.4538 29.5598 17.9037 29.9751 18.4036 29.9751C18.9535 29.9751 19.3534 29.5078 19.3534 28.9886ZM32.1508 20.9929C32.1508 21.5641 32.6007 21.9794 33.1006 21.9794C33.6005 21.9794 34.0504 21.5121 34.0504 20.9929C34.0504 20.4218 33.6005 20.0065 33.1006 20.0065C32.5507 20.0065 32.1508 20.4737 32.1508 20.9929ZM30.2012 20.9929C30.2012 19.3315 31.5009 17.9816 33.1006 17.9816C34.7003 17.9816 36 19.3315 36 21.0449C36 22.7063 34.7003 24.0562 33.1006 24.0562C32.4507 24.0562 31.8009 23.8485 31.301 23.4332L21.303 29.0406C21.253 30.702 20.0033 32 18.4036 32C17.0039 32 15.7542 30.8578 15.5542 29.404L6.45608 24.5235C4.95638 23.7447 3.9066 21.5121 4.00658 19.3834C4.05657 18.0335 4.60646 16.9432 5.45628 16.424C5.7342 16.2508 8.45337 14.8419 11.9044 13.0539C14.6608 11.6257 17.884 9.9557 20.7031 8.48018L21.0531 8.32442C21.203 8.22058 22.2028 7.64946 23.4026 8.32442C24.8023 9.10322 28.0016 10.6608 30.8011 12.0107C31.3305 12.2645 31.8682 12.5269 32.3804 12.7769C33.1257 13.1406 33.817 13.4779 34.3503 13.7241C34.3503 13.7241 34.8002 13.9318 34.8002 14.3991C34.8002 14.7625 34.5503 14.9702 34.3004 15.074L18.9035 23.3813C18.0537 23.7966 17.8037 23.6928 17.3038 23.4851C17.1194 23.3893 14.2323 21.8213 11.5013 20.3381C9.79078 19.4091 8.14151 18.5134 7.25591 18.0335L7.20592 17.9816C6.85599 17.8258 6.60604 17.7739 6.3561 17.9296C6.00617 18.1373 5.75622 18.7084 5.70623 19.4353C5.60625 20.8891 6.30611 22.3948 7.20592 22.914L15.8042 27.5868C16.3041 26.6003 17.3038 25.9253 18.4036 25.9253C19.3534 25.9253 20.2532 26.3926 20.8031 27.2233L30.3512 21.9275C30.2512 21.616 30.2012 21.3045 30.2012 20.9929Z" fill="#696969"/>
</svg>
