<svg width="30px" height="30px" viewBox="0 0 30 30" version="1.1" xmlns="http://www.w3.org/2000/svg" xmlns:xlink="http://www.w3.org/1999/xlink">
  <g id="Page-1" stroke="none" stroke-width="1" fill="none" fill-rule="evenodd">
      <g id="Home-Sol-Copy-5" transform="translate(-1381.000000, -909.000000)" fill="#696969" fill-rule="nonzero">
          <g id="Group-4" transform="translate(1381.000000, 869.000000)">
              <g id="twitter-3" transform="translate(0.000000, 40.000000)">
                  <path d="M15,0 C6.71572875,0 0,6.71572875 0,15 C0,23.2842712 6.71572875,30 15,30 C23.2842712,30 30,23.2842712 30,15 C30,6.71572875 23.2842712,0 15,0 Z M22.7210526,11.0526316 C22.7210526,11.2223684 22.7348684,11.3921053 22.7348684,11.5677632 C22.7348684,16.8315789 18.7263158,22.9046946 11.3940789,22.9046946 C9.22452617,22.913267 7.09908803,22.2920905 5.27565789,21.1164474 C5.5918465,21.1559602 5.91031099,21.1744219 6.22894737,21.1717105 C8.01725208,21.1718624 9.75419055,20.5736607 11.1631579,19.4723684 C9.46185091,19.4221435 7.97611121,18.3070484 7.45263158,16.6875 C7.70148656,16.7367941 7.95490573,16.7592908 8.20855263,16.7546053 C8.56081489,16.7576638 8.91191934,16.7138587 9.25263158,16.6243421 C7.39547439,16.2399906 6.06297631,14.6050641 6.06118421,12.7085526 L6.06118421,12.6651316 C6.61305565,12.9710134 7.23044126,13.1395759 7.86118421,13.1565789 C6.1069635,11.9843861 5.56969506,9.64843636 6.63552632,7.82763158 C8.65503295,10.3228477 11.6418743,11.8395975 14.8480263,11.9980263 C14.7835718,11.699765 14.7524598,11.3952649 14.7552632,11.0901316 C14.7538659,9.45423076 15.7529146,7.98383507 17.2743218,7.38259169 C18.795729,6.7813483 20.530062,7.17154158 21.6473684,8.36644737 C22.538371,8.19123081 23.3928118,7.86480772 24.1736842,7.40131579 C23.8790051,8.32542506 23.2553481,9.10921023 22.4210526,9.60394737 C23.2124874,9.50559061 23.9855864,9.29353678 24.7164474,8.97434211 C24.1838639,9.78318708 23.5075621,10.4875845 22.7210526,11.0526316 L22.7210526,11.0526316 Z" id="_04.Twitter"></path>
              </g>
          </g>
      </g>
  </g>
</svg>