<svg xmlns="http://www.w3.org/2000/svg" viewBox="0 0 100 100"><defs><style>.cls-1{fill:#9b9b9b;}.cls-2{fill:#fff;}</style></defs><g id="Main"><path class="cls-1" d="M39.62,97.54V80.25a1,1,0,0,0-.31-.74L5.78,46A1,1,0,0,0,4,46.72v14.6a1,1,0,0,0,.3.73Z"/><path class="cls-1" d="M82.12,50.57l10.1,10.09A1,1,0,0,0,94,59.93V44.72l-3.18-3.17Z"/><path class="cls-2" d="M75.58,26.3,63.33,38.56a2.73,2.73,0,0,1-3.84,0l-7.05-7L41.5,42.45a2.73,2.73,0,0,1-3.84,0L31.17,36,4.69,62.44,39.4,97.49a1,1,0,0,0,1.48,0L94,44.72Z"/></g><g id="Cube_1" data-name="Cube 1"><rect class="cls-2" x="31.17" y="16.89" width="16.82" height="16.82" rx="2.5" transform="translate(-6.3 35.4) rotate(-45)"/></g><g id="Cube_2" data-name="Cube 2"><rect class="cls-2" x="56.26" y="16.32" width="13.21" height="13.21" rx="2.3" transform="translate(2.2 51.17) rotate(-45)"/></g><g id="Cube_3" data-name="Cube 3"><rect class="cls-2" x="45.91" y="4.39" width="11.02" height="11.02" rx="2.13" transform="translate(8.06 39.26) rotate(-45)"/></g></svg>