<?xml version="1.0" encoding="UTF-8"?>
<svg width="153px" height="25px" viewBox="0 0 153 25" version="1.1" xmlns="http://www.w3.org/2000/svg" xmlns:xlink="http://www.w3.org/1999/xlink">
    <title>MCT black@3x</title>
    <g id="MCT" stroke="none" stroke-width="1" fill="none" fill-rule="evenodd">
        <g id="MCT-black" fill="#000000" fill-rule="nonzero">
            <path d="M24,1 L24,1.53581742 C23.5444722,1.53108626 23.0912957,1.59905464 22.6590191,1.73694062 C22.3646465,1.84908108 22.1422418,2.0872723 22.0583675,2.3802271 C21.9362706,2.85776826 21.8845456,3.34936425 21.9047013,3.84067494 L21.9047013,17.1324638 C21.886086,17.6192908 21.9377986,18.1062469 22.0583675,18.5794764 C22.1363651,18.8754672 22.3608548,19.1158914 22.6590191,19.2227628 C23.0935371,19.3533372 23.5448206,19.4255431 24,19.4373213 L24,19.9731369 C23.4785748,19.9374416 22.8220205,19.915052 22.0303371,19.905968 C21.2383924,19.8975235 20.4328443,19.8931735 19.6136927,19.892918 C18.7193051,19.892918 17.8810759,19.897268 17.099005,19.905968 C16.3166663,19.9151804 15.6833254,19.93757 15.1989821,19.9731369 L15.1989821,19.4373286 C15.6861998,19.4246105 16.1697532,19.3525126 16.6380044,19.2227702 C16.9540067,19.1251741 17.1996241,18.884567 17.2946862,18.5794837 C17.4257284,18.1079064 17.482249,17.6201378 17.46236,17.1324711 L17.46236,2.63470424 L17.6576434,2.63470424 L10.7286467,20 L10.2816537,20 L2.73798822,2.74178445 L2.73798822,15.5783508 C2.71980083,16.3364465 2.77593894,17.0945039 2.90566199,17.8425229 C2.97193434,18.3025074 3.24172813,18.7127644 3.64598178,18.9682765 C4.02774579,19.1916603 4.62840565,19.3480043 5.44796134,19.4373084 L5.44796134,19.973124 C5.09420861,19.9374288 4.62854078,19.9150392 4.05095786,19.9059552 C3.47350624,19.8975107 2.93340555,19.8931607 2.43065579,19.8929051 C2.00207117,19.8929051 1.56428332,19.8972551 1.11729223,19.9059552 C0.670297316,19.9151676 0.297869123,19.9375572 0,19.973124 L0,19.4373286 C0.47832887,19.3895339 0.937954993,19.2333733 1.34098857,18.9817228 C1.67144574,18.7127493 1.88558647,18.3353497 1.94164013,17.9231398 C2.05848522,17.2548293 2.10993116,16.5775047 2.09530635,15.9000078 L2.09530635,3.84067494 C2.11505171,3.34937639 2.06333243,2.85783501 1.94164013,2.3802271 C1.85501887,2.08427131 1.62683128,1.84545827 1.32697527,1.73694062 C0.898950363,1.60131444 0.45077032,1.53338596 0,1.53581742 L0,1 C0.297728888,1.01804082 0.670157081,1.03595447 1.11728458,1.05374095 C1.56467725,1.07178176 2.00246511,1.08073798 2.43064815,1.08060959 C3.23138941,1.08060959 4.01839659,1.07165337 4.79166966,1.05374095 C5.56440475,1.0360853 6.24883456,1.01817165 6.84495909,1 L12.7123209,14.5865662 L12.01402,15.2029858 L17.6300452,1.08060408 L19.6137042,1.08060408 C20.4328583,1.08060408 21.2384064,1.07164787 22.0303486,1.05373544 C22.8218904,1.0360798 23.4784409,1.01816799 24,1 Z" id="Path"></path>
            <path d="M38,6 L38,6.53884977 C37.6010639,6.65188039 37.2452365,6.87187954 36.9755146,7.17226336 C36.6526346,7.50460443 36.3395401,8.06596799 36.0362312,8.85635403 L32.0226674,19.5286979 L30.9696417,21.4150493 L24.7644173,8.07510275 C24.4415451,7.37413857 24.1236946,6.94735788 23.8108657,6.79476066 C23.5630411,6.65982715 23.2854047,6.58145499 23,6.56586669 L23,6 C23.6261902,6.05365386 24.2760257,6.09405472 24.9495065,6.1212026 C25.6229859,6.14822136 26.2729558,6.16160224 26.8994162,6.16134523 C27.677259,6.16134523 28.3887857,6.14346061 29.0339963,6.10769138 C29.6789367,6.07179425 30.2862378,6.03589713 30.8558994,6 L30.8558994,6.56586669 C30.4987786,6.56460027 30.1420034,6.58704305 29.7881983,6.63302992 C29.5096731,6.64746161 29.2555175,6.78796566 29.1053431,7.01053077 C28.98141,7.21703762 29.0335923,7.57189494 29.26189,8.07510275 L32.8482066,16.2678205 L32.5921875,16.4295531 L34.698235,10.8507842 C35.2294351,9.39558808 35.3149112,8.33101733 34.9546632,7.65707192 C34.5938672,6.98351263 33.9581661,6.61077129 33.04756,6.53884793 L33.04756,6 C33.4837726,6.0177555 33.95817,6.03564012 34.4707523,6.05365386 C34.9827918,6.07179548 35.4286522,6.08080173 35.8083335,6.08067262 C36.1878798,6.08067262 36.5864503,6.07166636 37.0040451,6.05365386 C37.4210996,6.03589344 37.7530846,6.01800943 38,6 Z M32.0226713,19.5286997 L30.9411092,22.412078 C30.5803132,23.3284262 30.1628541,23.9663454 29.688732,24.3258355 C29.3880763,24.5583483 29.0389711,24.7281555 28.6642446,24.8241535 C28.1916111,24.9476955 27.7027672,25.0067051 27.2125139,24.9993955 C26.7340118,24.9957767 26.2588974,24.9230145 25.8035898,24.7836235 C25.3429077,24.6534262 24.9259247,24.4119929 24.59361,24.0830448 C24.2655741,23.7465755 24.0915877,23.3008177 24.1096913,22.8432327 C24.0886939,22.3306963 24.3200015,21.8379335 24.7358809,21.5092386 C25.6835357,20.8702003 26.9471602,20.843579 27.9238978,21.4420754 C28.3307796,21.74561 28.5542004,22.2190356 28.5215607,22.7085152 C28.5185885,23.0765854 28.3943077,23.4345915 28.1660675,23.7325572 C27.9001664,24.0757651 27.5264511,24.3305733 27.0983664,24.460542 C27.2111077,24.4795584 27.3254905,24.4884755 27.4399986,24.4871752 L27.7530924,24.4871752 C28.3045431,24.4931912 28.8399506,24.3115666 29.2618978,23.9753479 C29.6981103,23.6337399 30.058631,23.0947665 30.3434599,22.3584279 L31.3398161,19.5823591 L32.0226713,19.5286997 Z" id="Shape"></path>
            <path d="M48.930559,0 C50.164849,0 51.1794947,0.176571818 51.9744962,0.529715453 C52.7284207,0.859329473 53.4393259,1.27440351 54.0923147,1.76623957 C54.465976,2.03791046 54.751111,2.06956675 54.9477196,1.86120845 C55.1442002,1.65336844 55.2798704,1.15971851 55.3547301,0.380258647 L56,0.380258647 C55.9622309,1.08667611 55.934106,1.9426812 55.9156253,2.9482739 C55.8967402,3.95360746 55.8873648,5.28963987 55.8874992,6.95637115 L55.2422255,6.95637115 C55.1686627,6.23850446 55.0469329,5.52603844 54.8778083,4.82349305 C54.74525,4.27818155 54.5376796,3.75258855 54.2606646,3.26081136 C53.9761302,2.78364217 53.5943171,2.36756347 53.138473,2.03790922 C52.6795878,1.59041406 52.1239725,1.24706158 51.5116385,1.03257752 C50.8911675,0.814508439 50.2358708,0.704099225 49.5758289,0.706418085 C48.6507789,0.680516061 47.743043,0.95295147 46.9951488,1.48094794 C46.2516429,2.03642853 45.6594003,2.75937222 45.2698756,3.58696893 C44.8087478,4.54095974 44.4831522,5.55106506 44.3019698,6.58973262 C44.0933857,7.73351983 43.9901224,8.89299777 43.993398,10.0544906 C43.9892703,11.2255202 44.0972782,12.3943965 44.3160339,13.5461001 C44.5031587,14.5799322 44.843222,15.5822184 45.3257228,16.5220085 C45.7388325,17.3395674 46.3500746,18.0481236 47.1072465,18.5871635 C47.8611225,19.1020392 48.7657675,19.3687712 49.6879265,19.3480696 C50.3258032,19.3445124 50.9577749,19.2294057 51.5534235,19.00829 C52.1590116,18.7949273 52.709456,18.4565401 53.1665991,18.0165859 C53.8691107,17.509461 54.3891838,16.8011522 54.6532099,15.9919099 C54.9615036,14.9406641 55.1588548,13.861821 55.2422293,12.7719664 L55.8874992,12.7719664 C55.8874992,14.4930591 55.8968746,15.8834511 55.9156253,16.9431424 C55.9341073,18.0029639 55.9622322,18.8951628 56,19.6197392 L55.3547378,19.6197392 C55.2796016,18.8409328 55.1533068,18.3518241 54.9758534,18.1524132 C54.7978612,17.9531375 54.5033508,17.9802525 54.0923224,18.2337583 C53.3965586,18.7068566 52.659731,19.1205829 51.8901292,19.4702824 C51.1138772,19.8236864 50.117981,20.0002589 48.9024405,20 C46.9200254,20 45.1855112,19.6105289 43.6988979,18.8315874 C42.225197,18.0654172 41.0194099,16.8927653 40.2342893,15.462187 C39.4114285,13.9944699 39,12.2281001 39,10.1630777 C39,8.13450835 39.4254919,6.35905664 40.2764757,4.83672259 C41.0838206,3.35947615 42.297393,2.12744423 43.7828617,1.27700135 C45.2698769,0.425797309 46.985776,0 48.930559,0 Z" id="Path"></path>
            <path d="M65.5,5.00189771 C66.6720016,4.97525237 67.8341238,5.2295114 68.895914,5.74488506 C69.889023,6.26165492 70.6906933,7.10292328 71.1773356,8.13899642 C71.7252725,9.23987636 71.999494,10.6985208 72,12.5149297 C72,14.3312068 71.7257785,15.7851217 71.1773356,16.8766743 C70.6878781,17.9072696 69.8865884,18.7432927 68.895914,19.2569887 C66.7465904,20.2476704 64.2933086,20.2476704 62.143985,19.2569887 C61.1456423,18.744912 60.335388,17.9092786 59.8359634,16.8766743 C59.2785286,15.785251 59,14.3313362 59,12.5149297 C59,10.6986526 59.2786545,9.2400082 59.8359634,8.13899642 C60.3325605,7.10088498 61.143203,6.26000527 62.143985,5.74488506 C63.1931101,5.23410641 64.3412568,4.97991843 65.5,5.00189771 L65.5,5.00189771 Z M65.4999991,5.55213426 C64.7924678,5.55213426 64.1999459,6.09804932 63.7224336,7.18986437 C63.2447942,8.28168069 63.006038,10.0567025 63.0061651,12.5149297 C63.0061651,14.9736832 63.2449213,16.744106 63.7224336,17.8261981 C64.2000742,18.9089483 64.7925961,19.4501263 65.4999991,19.4497322 C66.2250071,19.4497322 66.8219613,18.908554 67.2908618,17.8261981 C67.7593822,16.7438435 67.9937054,14.9734207 67.9938313,12.5149297 C67.9938313,10.0565706 67.7595081,8.28154884 67.2908618,7.18986437 C66.8219625,6.09843858 66.2250083,5.55252854 65.4999991,5.55213426 L65.4999991,5.55213426 Z" id="Shape"></path>
            <path d="M83.3153081,5.00287944 C83.9610832,4.98123431 84.6051987,5.08177207 85.2149724,5.29939152 C85.6589643,5.46471595 86.0547463,5.74161643 86.3655737,6.10438538 C86.6836547,6.50897685 86.906598,6.98234888 87.0173273,7.48824373 C87.174332,8.23984215 87.2441822,9.00761177 87.2254443,9.77579606 L87.2254443,17.3734585 C87.2254443,18.1642927 87.3594232,18.700954 87.6273811,18.9834424 C87.8950733,19.265798 88.352613,19.4069758 89,19.4069758 L89,20 C88.6489008,19.9813924 88.1221211,19.9577955 87.4196608,19.9292094 C86.7166703,19.9012973 86.0233442,19.8872742 85.3396824,19.8871402 C84.6370893,19.8871402 83.9485289,19.9011633 83.2740013,19.9292094 C82.5988119,19.9575274 82.0857979,19.9811243 81.7349594,20 L81.7349594,19.4069758 C82.2894118,19.4069758 82.677579,19.265798 82.8994612,18.9834424 C83.1214788,18.7006847 83.2324218,18.1640234 83.2322902,17.3734585 L83.2322902,8.58974001 C83.2387672,8.17583376 83.1921694,7.76283702 83.0936777,7.36121656 C83.0178339,7.04069656 82.8428049,6.75351152 82.5944352,6.5420669 C82.3541481,6.34425687 81.9936503,6.24541886 81.5129418,6.24555289 C80.7558461,6.23624182 80.0359907,6.57944257 79.5580702,7.17756426 C79.0192747,7.8326514 78.7377183,8.6677319 78.7677022,9.52175138 L78.7677022,17.3734547 C78.7677022,18.1642889 78.8832787,18.7009501 79.1144317,18.9834385 C79.3451874,19.2657942 79.7287212,19.406972 80.265033,19.406972 L80.265033,20 C79.9322047,19.9813885 79.4469956,19.9577916 78.8094057,19.9292055 C78.1715502,19.9012934 77.5106592,19.8872704 76.826733,19.8871364 C76.1237426,19.8871364 75.402747,19.9011594 74.6637462,19.9292055 C73.924214,19.9575236 73.369632,19.9811204 73,20 L73,19.406972 C73.6465937,19.406972 74.1041333,19.2657942 74.3726189,18.9834385 C74.6403123,18.7006808 74.7742913,18.1640195 74.7745557,17.3734547 L74.7745557,8.4768783 C74.7745557,7.62941318 74.6498444,7.00335302 74.4004218,6.59869783 C74.1506007,6.19377587 73.6837934,5.99138449 73,5.99152367 L73,5.39849951 C73.5913863,5.45472836 74.1643702,5.4829098 74.7189517,5.48304382 C75.4954191,5.48304382 76.2210488,5.45014314 76.8958409,5.38434178 C77.5252973,5.32570573 78.1504934,5.22667158 78.7677022,5.08782969 L78.7677022,7.62941704 C79.2296109,6.66908828 79.8581988,5.99124917 80.653466,5.59589973 C81.4841758,5.19240225 82.3950614,4.98946998 83.3153081,5.00287944 Z" id="Path"></path>
            <path d="M96.6435342,5.00108289 C97.3006409,4.98847546 97.9554245,5.08602477 98.5828732,5.29000456 C99.0058703,5.41963812 99.4097287,5.60943849 99.7830581,5.85405258 C100.380883,6.27660139 100.750335,6.00147377 100.891414,5.02866974 L101.445401,5.02866974 C101.409878,5.5426586 101.383425,6.17095665 101.366042,6.91356388 C101.34866,7.65695594 101.339968,8.64315282 101.339968,9.87215454 L100.785602,9.87215454 C100.695209,9.18418349 100.527009,8.50980204 100.284516,7.8631045 C100.061506,7.23859597 99.6944693,6.68098875 99.2158325,6.23954518 C98.7091896,5.80281497 98.065418,5.57729988 97.4087498,5.60651872 C96.9395358,5.59187828 96.4808032,5.75295762 96.1156032,6.06059419 C95.7538036,6.38667353 95.5586916,6.87023635 95.5880658,7.3680349 C95.5796042,7.89268893 95.7476807,8.40384633 96.0630755,8.81264324 C96.4185706,9.26331226 96.8312398,9.66139497 97.2897121,9.99592241 C97.7911747,10.3723487 98.3145545,10.7713736 98.8598515,11.1929969 C99.6632445,11.8016201 100.409636,12.4881534 101.089051,13.2434215 C101.695946,13.9312368 101.999393,14.8255937 101.999393,15.9264922 C102.013783,16.7071609 101.771766,17.4694834 101.31352,18.0869026 C100.839161,18.7149639 100.21626,19.2034439 99.5060636,19.504314 C98.7155016,19.8431572 97.8673582,20.0115626 97.0127338,19.9993836 C96.5375264,20.0057587 96.0634059,19.9504133 95.601306,19.8346235 C95.2307863,19.7410984 94.8720956,19.602452 94.5326226,19.4215402 C94.3039988,19.3115671 94.0886007,19.2060623 93.8864285,19.1050261 C93.6838783,19.0045147 93.4948091,18.9174044 93.3192209,18.843695 C93.1410927,18.7890799 92.9502701,18.8687283 92.857437,19.0364413 C92.7056753,19.2683093 92.6022944,19.5308393 92.553989,19.807031 L92,19.807031 C92.0347656,19.2201213 92.061092,18.5045836 92.0789793,17.6604177 C92.0963621,16.8165143 92.1051799,15.6973527 92.1054327,14.3029328 L92.6594217,14.3029328 C92.7441596,15.201345 92.9392376,16.0846736 93.2398624,16.931214 C93.4727297,17.6183119 93.867361,18.233376 94.3875197,18.719929 C94.9022529,19.1625173 95.554811,19.3926748 96.2214277,19.3667489 C96.6801619,19.3662554 97.1256873,19.2064989 97.4877436,18.9126734 C97.8743284,18.6099552 98.0678092,18.1098929 98.068186,17.4124864 C98.0902918,16.6640425 97.8186948,15.9385879 97.3161818,15.4038301 C96.7163928,14.7819434 96.077332,14.202671 95.4032926,13.6699045 C94.8402384,13.1929656 94.3081672,12.7204951 93.807079,12.2524931 C93.3244098,11.8080122 92.9106295,11.2882604 92.5804425,10.7117075 C92.2584396,10.1309351 92.0942224,9.46962883 92.1054327,8.79883286 C92.0828715,8.0469192 92.306223,7.30936934 92.7387784,6.70740276 C93.1740718,6.12860339 93.753607,5.68583805 94.4139731,5.42755267 C95.1247696,5.14017239 95.8812271,4.99547742 96.6435342,5.00108289 Z" id="Path"></path>
            <path d="M108.386503,1 L108.386503,5.48355507 L111.691887,5.48355507 L111.691887,6.03014923 L108.386503,6.03014923 L108.386503,17.0743928 C108.386503,17.6209894 108.489208,18.0082254 108.694617,18.2361009 C108.935474,18.4782853 109.274128,18.6035191 109.618951,18.5779177 C109.987515,18.5666083 110.341933,18.4368104 110.627135,18.2086918 C110.96333,17.9628044 111.262213,17.5391552 111.523782,16.9377442 L112,17.1836341 C111.730511,17.959709 111.262862,18.655976 110.641178,19.2067353 C110.034181,19.7349258 109.207868,19.9990865 108.16224,19.9992175 C107.61142,20.0087972 107.062704,19.9303659 106.537833,19.7670311 C105.514309,19.4487959 104.751213,18.6095431 104.549146,17.5798743 C104.402963,16.818548 104.337225,16.0445898 104.352965,15.2701635 L104.352965,6.03014923 L102,6.03014923 L102,5.48355507 L104.352965,5.48355507 L104.352965,1.87470557 C105.081891,1.88008406 105.809413,1.81145576 106.52379,1.66992829 C107.175144,1.53747737 107.802841,1.31172485 108.386503,1 Z" id="Path"></path>
            <path d="M116.413488,19.9986617 C115.213877,19.9986617 114.345547,19.673383 113.808499,19.0228255 C113.26813,18.3628129 112.981353,17.5190177 113.003113,16.6531103 C112.973419,15.9614644 113.156773,15.2779857 113.526573,14.7018386 C113.886054,14.1905863 114.348925,13.7671685 114.882722,13.4612821 C115.442682,13.1338669 116.031672,12.8631078 116.64156,12.6527428 C117.25925,12.4395295 117.850017,12.2259155 118.41386,12.0119009 C118.903729,11.8387634 119.365505,11.5895819 119.78347,11.2728381 C120.114982,11.0304066 120.310765,10.6345045 120.307313,10.2135529 L120.307313,8.0390851 C120.314224,7.59565429 120.236583,7.15518318 120.078856,6.74302828 C119.941517,6.38094587 119.697112,6.07340194 119.380783,5.86461541 C119.009402,5.64503123 118.585855,5.53874053 118.158864,5.55797036 C117.795787,5.5588526 117.434473,5.61042232 117.084638,5.71129288 C116.750839,5.79973127 116.445265,5.97761958 116.198489,6.22715963 C116.660345,6.38438643 117.066865,6.68036958 117.366561,7.07762197 C117.641049,7.44916355 117.7877,7.90547088 117.783097,8.37367878 C117.806745,8.94947129 117.574,9.50456423 117.151948,9.87895729 C116.737909,10.2484318 116.207456,10.4469588 115.661562,10.4367489 C115.016949,10.4367489 114.52913,10.2276608 114.198107,9.80948448 C113.863089,9.38087905 113.686827,8.84199033 113.701185,8.29022975 C113.683173,7.8114788 113.820211,7.34026894 114.090415,6.95185121 C114.395978,6.55620269 114.763714,6.21697005 115.178108,5.94846512 C115.746161,5.62511976 116.35692,5.39022836 116.990792,5.25132531 C117.744637,5.07908263 118.514683,4.99497644 119.286551,5.00057753 C120.037228,4.99190962 120.785997,5.0808419 121.515389,5.26529963 C122.144304,5.42280427 122.719946,5.75535091 123.18038,6.22715963 C123.593527,6.65761454 123.874008,7.20591286 123.986146,7.80231354 C124.124233,8.57909711 124.187109,9.36827434 124.173837,10.1580544 L124.173837,17.7403442 C124.153708,18.062631 124.199588,18.3856878 124.308453,18.6882318 C124.390735,18.8699575 124.572023,18.9806244 124.764997,18.9669282 C124.943759,18.9671681 125.119509,18.9191474 125.274995,18.82758 C125.438196,18.7333595 125.591244,18.6213261 125.731539,18.4933832 L126,18.9669282 C125.616789,19.3060849 125.174794,19.5662693 124.697698,19.7335408 C124.165234,19.9167036 123.607052,20.0063086 123.046166,19.9986617 C121.971939,19.9986617 121.260275,19.7709399 120.911175,19.3154962 C120.564805,18.8681744 120.371227,18.3141688 120.360793,17.7403442 C119.96551,18.4493761 119.395465,19.0363319 118.709262,19.4408701 C118.002025,19.8261094 117.21195,20.0180696 116.413488,19.9986617 L116.413488,19.9986617 Z M118.481171,18.2142842 C118.814225,18.2161276 119.142237,18.1298302 119.434245,17.9635383 C119.786932,17.7391476 120.085558,17.4340513 120.307316,17.0715499 L120.307316,11.3566859 C120.083183,11.7377708 119.774794,12.0579182 119.407705,12.2905973 C119.022322,12.5413451 118.628477,12.8108582 118.226172,13.0991367 C117.82079,13.3899348 117.477819,13.7647433 117.218868,14.1999461 C116.950406,14.6459387 116.816175,15.2407313 116.816175,15.9843236 C116.816175,16.7836785 116.977328,17.3551785 117.299634,17.6988239 C117.60601,18.0356701 118.034985,18.222817 118.481171,18.214288 L118.481171,18.2142842 Z" id="Shape"></path>
            <path d="M137.315303,5.00287944 C137.961078,4.98123431 138.605194,5.08177207 139.214969,5.29939152 C139.658961,5.46471648 140.054743,5.74161687 140.365571,6.10438538 C140.683653,6.50897685 140.906596,6.98234888 141.017325,7.48824373 C141.17433,8.23984215 141.244181,9.00761177 141.225443,9.77579606 L141.225443,17.3734585 C141.225443,18.1642927 141.359422,18.700954 141.62738,18.9834424 C141.895071,19.265798 142.352611,19.4069758 143,19.4069758 L143,20 C142.6489,19.9813924 142.12212,19.9577955 141.419659,19.9292094 C140.716668,19.9012973 140.023341,19.8872742 139.339677,19.8871402 C138.637082,19.8871402 137.948521,19.9011633 137.273994,19.9292094 C136.598806,19.9575274 136.085795,19.9811243 135.73496,20 L135.73496,19.4069758 C136.289413,19.4069758 136.677581,19.265798 136.899463,18.9834424 C137.121481,18.7006847 137.232424,18.1640234 137.232292,17.3734585 L137.232292,8.58974001 C137.238769,8.17583376 137.192171,7.76283702 137.09368,7.36121656 C137.017836,7.04069656 136.842807,6.75351152 136.594437,6.5420669 C136.354147,6.34425687 135.993649,6.24541886 135.512942,6.24555289 C134.755846,6.23624153 134.03599,6.57944234 133.558069,7.17756426 C133.019273,7.8326514 132.737716,8.6677319 132.7677,9.52175138 L132.7677,17.3734547 C132.7677,18.1642889 132.883277,18.7009501 133.11443,18.9834385 C133.345186,19.2657942 133.72872,19.406972 134.265032,19.406972 L134.265032,20 C133.932204,19.9813885 133.446994,19.9577916 132.809404,19.9292055 C132.171549,19.9012934 131.510657,19.8872704 130.826729,19.8871364 C130.123738,19.8871364 129.402741,19.9011594 128.663738,19.9292055 C127.924208,19.9575236 127.369629,19.9811204 127,20 L127,19.406972 C127.646593,19.406972 128.104133,19.2657942 128.37262,18.9834385 C128.640314,18.7006808 128.774293,18.1640195 128.774557,17.3734547 L128.774557,8.4768783 C128.774557,7.62941318 128.649846,7.00335302 128.400423,6.59869783 C128.150602,6.19377587 127.683794,5.99138449 127,5.99152367 L127,5.39849951 C127.591386,5.45472836 128.16437,5.4829098 128.718953,5.48304382 C129.495421,5.48304382 130.221052,5.45014314 130.895845,5.38434178 C131.525302,5.32570573 132.150498,5.22667158 132.767708,5.08782969 L132.767708,7.62941704 C133.229616,6.66908828 133.858204,5.99124917 134.653473,5.59589973 C135.484179,5.19240438 136.39506,4.98947215 137.315303,5.00287944 L137.315303,5.00287944 Z" id="Path"></path>
            <path d="M149.386501,1 L149.386501,5.48355507 L152.691887,5.48355507 L152.691887,6.03014923 L149.386501,6.03014923 L149.386501,17.0743928 C149.386501,17.6209894 149.489205,18.0082254 149.694614,18.2361009 C149.935472,18.4782852 150.274127,18.6035189 150.61895,18.5779177 C150.987515,18.5666078 151.341932,18.43681 151.627135,18.2086918 C151.963329,17.9628044 152.262211,17.5391552 152.523782,16.9377442 L153,17.1836341 C152.730511,17.959709 152.262861,18.655976 151.641178,19.2067353 C151.03418,19.7349258 150.207867,19.9990865 149.162239,19.9992175 C148.611419,20.0087972 148.062703,19.9303659 147.537832,19.7670311 C146.514308,19.4487959 145.751212,18.6095431 145.549144,17.5798743 C145.402962,16.818548 145.337224,16.0445898 145.352963,15.2701635 L145.352963,6.03014923 L143,6.03014923 L143,5.48355507 L145.352963,5.48355507 L145.352963,1.87470557 C146.08189,1.88008398 146.809413,1.81145567 147.523791,1.66992829 C148.175143,1.53747685 148.80284,1.31172436 149.386501,1 L149.386501,1 Z" id="Path"></path>
        </g>
    </g>
</svg>