<?xml version="1.0" encoding="UTF-8"?>
<svg width="167px" height="90px" viewBox="0 0 167 90" version="1.1" xmlns="http://www.w3.org/2000/svg" xmlns:xlink="http://www.w3.org/1999/xlink">
    <!-- Generator: Sketch 64 (93537) - https://sketch.com -->
    <title>img_list_empty_dark</title>
    <desc>Created with Sketch.</desc>
    <g id="PRO" stroke="none" stroke-width="1" fill="none" fill-rule="evenodd">
        <g id="Pro-invest-no-active-Copy-5" transform="translate(-97.000000, -472.000000)">
            <g id="img_list_empty_dark" transform="translate(97.000000, 474.000000)">
                <path d="M160,10 C163.865993,10 167,13.1340068 167,17 C167,20.8659932 163.865993,24 160,24 L120,24 C123.865993,24 127,27.1340068 127,31 C127,34.8659932 123.865993,38 120,38 L142,38 C145.865993,38 149,41.1340068 149,45 C149,48.865993 145.865993,52 142,52 L131.826087,52 C126.951574,52 123,55.134007 123,59 C123,61.577329 125,63.910662 129,66 C132.865993,66 136,69.134007 136,73 C136,76.865993 132.865993,80 129,80 L46,80 C42.1340068,80 39,76.865993 39,73 C39,69.134007 42.1340068,66 46,66 L7,66 C3.1340068,66 0,62.865993 0,59 C0,55.134007 3.1340068,52 7,52 L47,52 C50.8659932,52 54,48.865993 54,45 C54,41.1340068 50.8659932,38 47,38 L22,38 C18.1340068,38 15,34.8659932 15,31 C15,27.1340068 18.1340068,24 22,24 L62,24 C58.134007,24 55,20.8659932 55,17 C55,13.1340068 58.134007,10 62,10 L160,10 Z M160,38 C163.865993,38 167,41.1340068 167,45 C167,48.865993 163.865993,52 160,52 C156.134007,52 153,48.865993 153,45 C153,41.1340068 156.134007,38 160,38 Z" id="Background" fill="#1E1E1E" fill-rule="nonzero"></path>
                <path d="M71.118551,58.306628 C71.040412,58.859855 71,59.425208 71,60 C71,66.627417 76.372583,72 83,72 C89.627417,72 95,66.627417 95,60 C95,59.425208 94.959588,58.859855 94.881449,58.306628 L124,58.306628 L124,85 C124,86.656854 122.656854,88 121,88 L45,88 C43.3431458,88 42,86.656854 42,85 L42,58.306628 L71.118551,58.306628 Z" id="Path" fill="#1E1E1E" fill-rule="nonzero"></path>
                <path d="M96,58 C96,65.179702 90.179702,71 83,71 C75.820298,71 70,65.179702 70,58 C70,57.767399 70.006109,57.536224 70.018175,57.306628 L42,57.306628 L51.5604397,29.0388533 C51.9725967,27.8202106 53.115851,27 54.402305,27 L111.597695,27 C112.884149,27 114.027403,27.8202106 114.43956,29.0388533 L124,57.306628 L95.981825,57.306628 C95.993891,57.536224 96,57.767399 96,58 Z" id="Path" fill="#181818" fill-rule="nonzero"></path>
                <path d="M94.097561,58.954545 C94.097561,64.502497 89.129014,70 83,70 C76.870986,70 71.902439,64.502497 71.902439,58.954545 C71.902439,58.774808 71.907654,57.596173 71.917954,57.418758 L51,57.418758 L59.161351,37.5754775 C59.513192,36.6337991 60.489141,36 61.587333,36 L104.412667,36 C105.510859,36 106.486808,36.6337991 106.838649,37.5754775 L115,57.418758 L94.082046,57.418758 C94.092346,57.596173 94.097561,58.774808 94.097561,58.954545 Z" id="Path" fill="#101010" fill-rule="nonzero"></path>
                <path d="M111.597695,28.25 L54.402305,28.25 C54.027089,28.25 53.672757,28.369614 53.382175,28.5780874 C53.091593,28.7865608 52.8647626,29.0838936 52.7445502,29.4393311 L43.25,57.512287 L43.25,84 C43.25,84.483249 43.4458754,84.920749 43.7625631,85.237437 C44.0792508,85.554125 44.5167508,85.75 45,85.75 L121,85.75 C121.483249,85.75 121.920749,85.554125 122.237437,85.237437 C122.554125,84.920749 122.75,84.483249 122.75,84 L122.75,57.512287 L113.25545,29.4393311 C113.135237,29.0838936 112.908407,28.7865608 112.617825,28.5780874 C112.327243,28.369614 111.972911,28.25 111.597695,28.25 Z" id="Rectangle" stroke="#303030" stroke-width="2.5"></path>
                <path d="M48.5737305,57 L51,57 L48.5737305,57 Z M56,57 C59.93657,57 64.184873,57 68.744911,57 C70.621191,57 70.621191,58.318576 70.621191,59 C70.621191,65.627417 76.117382,71 82.897276,71 C89.677171,71 95.173361,65.627417 95.173361,59 C95.173361,58.318576 95.173361,57 97.049641,57 L122,57" id="Shape" stroke="#303030" stroke-width="2.5" stroke-linecap="round" stroke-linejoin="round"></path>
                <path d="M82.099609,0 L82.099609,16.7558594 M56,4.3027344 L67.099609,16.7558594 M108.099609,4.3027344 L97,16.7558594" id="lines" stroke="#323232" stroke-width="2.5" stroke-linecap="round" stroke-linejoin="round"></path>
            </g>
        </g>
    </g>
</svg>