<svg width="228px" height="149px" viewBox="0 0 228 149" version="1.1" xmlns="http://www.w3.org/2000/svg" xmlns:xlink="http://www.w3.org/1999/xlink">
	<g id="Page-1" stroke="none" stroke-width="1" fill="none" fill-rule="evenodd">
			<g id="img_list_empty_gray" fill="#777E90" fill-rule="nonzero">
					<circle id="Oval" cx="56.5036629" cy="22.81096" r="22.81096"></circle>
					<circle id="Oval" cx="170.558463" cy="22.81096" r="22.81096"></circle>
					<path d="M219.249593,148.1312 C217.518543,148.1312 215.775823,147.55937 214.328743,146.37681 C185.947303,123.18852 150.143743,110.41765 113.515503,110.41765 C76.8833729,110.41765 41.0837029,123.18852 12.7022629,146.37681 C9.38020293,149.09981 4.47491293,148.60189 1.75580293,145.27594 C-0.963307074,141.94999 -0.469277074,137.04859 2.85667293,134.32948 C34.0077929,108.87332 73.3084629,94.85765 113.515503,94.85765 C153.722543,94.85765 193.019323,108.87721 224.174333,134.32559 C227.500283,137.0447 227.994313,141.9461 225.275203,145.27205 C223.738653,147.15481 221.501903,148.1312 219.249593,148.1312 Z" id="Path"></path>
			</g>
	</g>
</svg>