<?xml version="1.0"?>
<svg xmlns="http://www.w3.org/2000/svg" xmlns:xlink="http://www.w3.org/1999/xlink" xmlns:svgjs="http://svgjs.com/svgjs" version="1.1" width="512" height="512" x="0" y="0" viewBox="0 0 64 64" style="enable-background:new 0 0 512 512" xml:space="preserve"><g><script/><script/><path xmlns="http://www.w3.org/2000/svg" d="m42.63 39.13-.5-.28-.55 1.71 1.42 4.26a.91.91 0 0 1 0 .61l-1.38 4.33 1.26 4.68a1 1 0 0 1 -.27 1 1 1 0 0 1 -1 .24l-1.51-.45h-.1-.08l-1.92-.63-3 1.31a1 1 0 0 1 -.41.09.93.93 0 0 1 -.4-.09l-2.92-1.28-2.91 1.28a.93.93 0 0 1 -.8 0l-2.92-1.28-2.91 1.28a.93.93 0 0 1 -.8 0l-2.93-1.31-3.57 1.06a1 1 0 0 1 -.83-.12l-.15-.13a1 1 0 0 1 -.27-1l1.26-4.71-1.18-3.6-.2-.63a.91.91 0 0 1 0-.61l1.37-4.26-1.37-4.26a.91.91 0 0 1 0-.61l1.37-4.26-1.37-4.26a.91.91 0 0 1 0-.61l1.38-4.29-1.26-4.72a1 1 0 0 1 .27-1 1 1 0 0 1 1-.24l3.56 1 3-1.31a1 1 0 0 1 .81 0l2.91 1.28 2.91-1.28a1 1 0 0 1 .36-.04v-2.93a6.84 6.84 0 0 1 .32-2.07h-16.32a3 3 0 0 0 -3 3v44a3 3 0 0 0 3 3h32a3 3 0 0 0 3-3v-18.08a5.55 5.55 0 0 1 -1 .08 7 7 0 0 1 -3.37-.87z" fill="#ffffff" data-original="#000000"/><path xmlns="http://www.w3.org/2000/svg" d="m15.56 53.23 2.22-.65a1 1 0 0 1 .68 0l2.92 1.29 2.91-1.29a1 1 0 0 1 .8 0l2.91 1.33 2.91-1.29a1 1 0 0 1 .8 0l2.92 1.29 2.67-1.18-13.59-13.61a1 1 0 0 0 -1.42 0l-6.94 6.94 1.08 3.35a1 1 0 0 1 0 .55z" fill="#ffffff" data-original="#000000"/><path xmlns="http://www.w3.org/2000/svg" d="m51 58h4v4h-4z" fill="#ffffff" data-original="#000000"/><path xmlns="http://www.w3.org/2000/svg" d="m2 7h4v4h-4z" fill="#ffffff" data-original="#000000"/><path xmlns="http://www.w3.org/2000/svg" d="m59.45 8.74-11.05-6.12a4.94 4.94 0 0 0 -4.8 0l-11.05 6.12a5 5 0 0 0 -2.55 4.33v13.86a5 5 0 0 0 2.55 4.34l11.05 6.11a5 5 0 0 0 4.8 0l11.05-6.11a5 5 0 0 0 2.55-4.34v-13.86a5 5 0 0 0 -2.55-4.33zm-17.45 15.26a1 1 0 0 1 -1 1 1 1 0 0 1 -.86-.5 0 0 0 0 0 0 0l-4.14-5.5v5a1 1 0 0 1 -2 0v-8a1 1 0 0 1 1-1 1 1 0 0 1 .89.57.75.75 0 0 0 -.06-.13l4.17 5.56v-5a1 1 0 0 1 2 0zm7-5a1 1 0 0 1 0 2h-3v3a1 1 0 0 1 -2 0v-8a1 1 0 0 1 1-1h4a1 1 0 0 1 0 2h-3v2zm8-2h-1v7a1 1 0 0 1 -2 0v-7h-1a1 1 0 0 1 0-2h4a1 1 0 0 1 0 2z" fill="#ffffff" data-original="#000000"/><path xmlns="http://www.w3.org/2000/svg" d="m27 29a4 4 0 1 0 -4 4 4 4 0 0 0 4-4z" fill="#ffffff" data-original="#000000"/></g></svg>
