<?xml version="1.0"?>
<svg xmlns="http://www.w3.org/2000/svg" xmlns:xlink="http://www.w3.org/1999/xlink" xmlns:svgjs="http://svgjs.com/svgjs" version="1.1" width="512" height="512" x="0" y="0" viewBox="0 0 60 60" style="enable-background:new 0 0 512 512" xml:space="preserve"><g><script/><script/><circle xmlns="http://www.w3.org/2000/svg" cx="46" cy="43" r="1" fill="#ffffff" data-original="#000000"/><path xmlns="http://www.w3.org/2000/svg" d="M26,22a4,4,0,0,0,8,0V20H26Z" fill="#ffffff" data-original="#000000"/><path xmlns="http://www.w3.org/2000/svg" d="M24,22V20H16v2a4,4,0,0,0,8,0Z" fill="#ffffff" data-original="#000000"/><polygon xmlns="http://www.w3.org/2000/svg" points="26.564 16 26.199 18 33.801 18 33.436 16 26.564 16" fill="#ffffff" data-original="#000000"/><path xmlns="http://www.w3.org/2000/svg" d="M44,22V20H36v2a4,4,0,0,0,8,0Z" fill="#ffffff" data-original="#000000"/><path xmlns="http://www.w3.org/2000/svg" d="M46,22a4.009,4.009,0,0,0,4.4,3.984A4.15,4.15,0,0,0,54,21.79V20.07c0-.024-.005-.047-.006-.07H46Z" fill="#ffffff" data-original="#000000"/><path xmlns="http://www.w3.org/2000/svg" d="M47,33a1,1,0,0,0-1-1H34a1,1,0,0,0-1,1V54H47V45.816A2.966,2.966,0,0,1,46,46a3,3,0,0,1,0-6,2.966,2.966,0,0,1,1,.184Z" fill="#ffffff" data-original="#000000"/><rect xmlns="http://www.w3.org/2000/svg" x="13" y="32" width="14" height="12" rx="1" fill="#ffffff" data-original="#000000"/><path xmlns="http://www.w3.org/2000/svg" d="M52,54V27.645a5.671,5.671,0,0,1-1.414.331,6.049,6.049,0,0,1-4.623-1.538A5.987,5.987,0,0,1,45,25.313a6,6,0,0,1-10,0,6,6,0,0,1-10,0,6,6,0,0,1-10,0A6,6,0,0,1,9.98,28c-.187,0-.376-.009-.564-.026A5.686,5.686,0,0,1,8,27.645V54H31V33a3,3,0,0,1,3-3H46a3,3,0,0,1,3,3V54ZM29,43a3,3,0,0,1-3,3H14a3,3,0,0,1-3-3V33a3,3,0,0,1,3-3H26a3,3,0,0,1,3,3Z" fill="#ffffff" data-original="#000000"/><path xmlns="http://www.w3.org/2000/svg" d="M52.89,18l-6.164-7.537A3.988,3.988,0,0,0,43.63,9H43v4c0,.069-.016.134-.02.2L45.594,18Z" fill="#ffffff" data-original="#000000"/><path xmlns="http://www.w3.org/2000/svg" d="M9.605,25.984a3.964,3.964,0,0,0,3.085-1.026A4.009,4.009,0,0,0,14,22V20H6.006c0,.023-.006.046-.006.07v1.72A4.15,4.15,0,0,0,9.605,25.984Z" fill="#ffffff" data-original="#000000"/><path xmlns="http://www.w3.org/2000/svg" d="M24.166,18l.366-2H20a2.97,2.97,0,0,1-1.863-.667L16.684,18Z" fill="#ffffff" data-original="#000000"/><path xmlns="http://www.w3.org/2000/svg" d="M35.468,16l.366,2h7.482l-1.453-2.667A2.97,2.97,0,0,1,40,16Z" fill="#ffffff" data-original="#000000"/><path xmlns="http://www.w3.org/2000/svg" d="M57,56H3a1,1,0,0,0,0,2H57a1,1,0,0,0,0-2Z" fill="#ffffff" data-original="#000000"/><path xmlns="http://www.w3.org/2000/svg" d="M17.02,13.2c0-.068-.02-.133-.02-.2V9h-.63a3.989,3.989,0,0,0-3.1,1.464L7.111,18h7.3Z" fill="#ffffff" data-original="#000000"/><path xmlns="http://www.w3.org/2000/svg" d="M20,14H40a1,1,0,0,0,1-1V3a1,1,0,0,0-1-1H20a1,1,0,0,0-1,1V13A1,1,0,0,0,20,14ZM35,4h4a1,1,0,0,1,0,2H38v5a1,1,0,0,1-2,0V6H35a1,1,0,0,1,0-2ZM28,5a1,1,0,0,1,1-1h3a1,1,0,0,1,0,2H30V7h1a1,1,0,0,1,0,2H30v2a1,1,0,0,1-2,0ZM21,5a1,1,0,0,1,1.832-.555L25,7.7V5a1,1,0,0,1,2,0v6a1,1,0,0,1-1.832.555L23,8.3V11a1,1,0,0,1-2,0Z" fill="#ffffff" data-original="#000000"/></g></svg>
