<?xml version="1.0"?>
<svg xmlns="http://www.w3.org/2000/svg" xmlns:xlink="http://www.w3.org/1999/xlink" xmlns:svgjs="http://svgjs.com/svgjs" version="1.1" width="512" height="512" x="0" y="0" viewBox="0 0 64 64" style="enable-background:new 0 0 512 512" xml:space="preserve"><g><script/><script/><path xmlns="http://www.w3.org/2000/svg" d="M56.08,15H33.24l-.24.24v2.41L35.42,19A6.94,6.94,0,0,1,39,25.07V38.93A6.94,6.94,0,0,1,35.42,45L33,46.35v2.41l.24.24H56.08A2.92,2.92,0,0,0,59,46.08V38H49a6,6,0,0,1,0-12H59V17.92A2.92,2.92,0,0,0,56.08,15Z" fill="#ffffff" data-original="#000000"/><path xmlns="http://www.w3.org/2000/svg" d="M45,32a4,4,0,0,0,4,4H59V28H49A4,4,0,0,0,45,32Zm6,0a2,2,0,1,1-2-2A2,2,0,0,1,51,32Z" fill="#ffffff" data-original="#000000"/><path xmlns="http://www.w3.org/2000/svg" d="M35,51a4,4,0,0,0-2,.57l-2-2V45.17l3.45-1.91A5,5,0,0,0,37,38.93V25.07a5,5,0,0,0-2.55-4.33L31,18.83V14.41l2-2A4.05,4.05,0,1,0,31.57,11l-2.28,2.27A1,1,0,0,0,29,14v3.72l-5.6-3.1a4.92,4.92,0,0,0-1.4-.51V9.86a4,4,0,1,0-2,0v4.25a4.92,4.92,0,0,0-1.4.51L13,17.72V14a1,1,0,0,0-.29-.71L10.43,11A4.05,4.05,0,1,0,9,12.43l2,2v4.42L7.55,20.74A5,5,0,0,0,5,25.07V38.93a5,5,0,0,0,2.55,4.33L11,45.17v4.42l-2,2A4.05,4.05,0,1,0,10.43,53l2.28-2.27A1,1,0,0,0,13,50V46.28l5.6,3.1a4.92,4.92,0,0,0,1.4.51v4.25a4,4,0,1,0,2,0V49.89a4.92,4.92,0,0,0,1.4-.51l5.6-3.1V50a1,1,0,0,0,.29.71L31.57,53A4,4,0,1,0,35,51ZM35,7a2,2,0,0,1,0,4,2,2,0,0,1-1.41-.59h0A2,2,0,0,1,33,9,2,2,0,0,1,35,7ZM5,9A2,2,0,0,1,9,9a2,2,0,0,1-.59,1.41h0A2,2,0,0,1,7,11,2,2,0,0,1,5,9ZM7,57a2,2,0,0,1,0-4,2,2,0,0,1,1.41.59h0A2,2,0,0,1,9,55,2,2,0,0,1,7,57ZM17,36a1,1,0,0,1-1,1,1,1,0,0,1-.86-.5,0,0,0,0,0,0,0L11,31v5a1,1,0,0,1-2,0V28a1,1,0,0,1,1-1,1,1,0,0,1,.86.5,0,0,0,0,0,0,0L15,33V28a1,1,0,0,1,2,0ZM19,6a2,2,0,1,1,2,2A2,2,0,0,1,19,6Zm4,52a2,2,0,1,1-2-2A2,2,0,0,1,23,58Zm1-27a1,1,0,0,1,0,2H21v3a1,1,0,0,1-2,0V28a1,1,0,0,1,1-1h4a1,1,0,0,1,0,2H21v2Zm3-3a1,1,0,0,1,1-1h4a1,1,0,0,1,0,2H31v7a1,1,0,0,1-2,0V29H28A1,1,0,0,1,27,28Zm8,29a2,2,0,0,1-2-2,2,2,0,0,1,.59-1.41h0A2,2,0,0,1,35,53a2,2,0,0,1,0,4Z" fill="#ffffff" data-original="#000000"/></g></svg>
