<svg width="50px" height="50px" viewBox="0 0 50 50" version="1.1" xmlns="http://www.w3.org/2000/svg" xmlns:xlink="http://www.w3.org/1999/xlink">
  <g id="Page-1" stroke="none" stroke-width="1" fill="none" fill-rule="evenodd">
      <g id="Detail" transform="translate(-645.000000, -621.000000)" fill="#353535" fill-rule="nonzero">
          <g id="discord-2" transform="translate(645.000000, 621.000000)">
              <path d="M44.5971518,0 C47.5809598,0 50,2.41904019 50,5.40284822 L50,5.40284822 L50,44.5971518 C50,47.5809598 47.5809598,50 44.5971518,50 L44.5971518,50 L5.40284822,50 C2.41904019,50 0,47.5809598 0,44.5971518 L0,44.5971518 L0,5.40284822 C0,2.41904019 2.41904019,0 5.40284822,0 L5.40284822,0 Z M30.102419,11.2192743 C30.0546235,11.2104955 30.0078034,11.2319547 29.9843933,11.2748732 C29.6664066,11.839641 29.3152556,12.5751073 29.0694499,13.153531 C26.295357,12.7389778 23.5358954,12.7389778 20.8193523,13.153531 C20.5725712,12.5624268 20.2087398,11.839641 19.8897776,11.2748732 C19.8663675,11.2339056 19.8195474,11.2124464 19.7717519,11.2192743 C17.1946937,11.6630901 14.727858,12.4404994 12.4268435,13.4978541 C12.4063597,13.5056574 12.3897776,13.5202887 12.3780726,13.5388217 C7.69996098,20.5286773 6.41825985,27.3458837 7.04642996,34.0792041 C7.04935622,34.1123683 7.06788919,34.1435817 7.09422552,34.1640655 C10.1804526,36.4309403 13.1701131,37.8072571 16.1051502,38.7192743 C16.1519703,38.7339056 16.2017167,38.716348 16.2319547,38.6773313 C16.925478,37.730199 17.5448693,36.7303941 18.0754975,35.6788919 C18.1067109,35.6174405 18.0764729,35.544284 18.0120952,35.5198986 C17.0308233,35.1482638 16.0963714,34.6937183 15.1970347,34.1786968 C15.1268045,34.1367538 15.120952,34.0353102 15.1863051,33.9865392 C15.3755365,33.8451034 15.5647679,33.6968396 15.7452204,33.5485759 C15.7774093,33.5212641 15.823254,33.5154116 15.8622708,33.5329692 C21.76746,36.2290285 28.1613344,36.2290285 33.9982442,33.5329692 C34.0362856,33.5134608 34.0821303,33.5193133 34.11627,33.546625 C34.2967226,33.6958642 34.485954,33.8451034 34.6761607,33.9865392 C34.7424893,34.0353102 34.7376122,34.1367538 34.6664066,34.1786968 C33.7680453,34.7034725 32.832618,35.1482638 31.8503707,35.5189231 C31.785993,35.5433086 31.7577058,35.6174405 31.7889192,35.6788919 C32.3312524,36.7284432 32.9496684,37.7282481 33.6314865,38.6763558 C33.6597737,38.716348 33.7104955,38.7339056 33.7573156,38.7192743 C36.7060086,37.8072571 39.6966446,36.4309403 42.7828716,34.1640655 C42.8101834,34.1435817 42.8277409,34.1143192 42.8296918,34.0811549 C43.5827156,26.2963324 41.5694499,19.5347249 37.4941475,13.5407725 C37.4843933,13.5202887 37.4678112,13.5056574 37.4473274,13.4978541 C35.1472883,12.4424503 32.6804526,11.665041 30.102419,11.2192743 Z M18.9572766,22.7048381 C20.7774093,22.7048381 22.2288334,24.3523215 22.2005462,26.3421771 C22.2005462,28.3476395 20.7637534,29.9795162 18.9572766,29.9795162 C17.179087,29.9795162 15.714007,28.3476395 15.714007,26.3421771 C15.714007,24.3376902 17.1507998,22.7048381 18.9572766,22.7048381 Z M30.9481077,22.7048381 C32.7692158,22.7048381 34.2196645,24.3523215 34.1913773,26.3421771 C34.1913773,28.3476395 32.7692158,29.9795162 30.9481077,29.9795162 C29.1699181,29.9795162 27.7048381,28.3476395 27.7048381,26.3421771 C27.7048381,24.3376902 29.1416309,22.7048381 30.9481077,22.7048381 Z" id="Combined-Shape"></path>
          </g>
      </g>
  </g>
</svg>