<svg width="50px" height="50px" viewBox="0 0 50 50" version="1.1" xmlns="http://www.w3.org/2000/svg" xmlns:xlink="http://www.w3.org/1999/xlink">
  <g id="Page-1" stroke="none" stroke-width="1" fill="none" fill-rule="evenodd">
      <g id="Detail" transform="translate(-705.000000, -621.000000)" fill="#353535" fill-rule="nonzero">
          <g id="twitter-2" transform="translate(705.000000, 621.000000)">
              <path d="M44.5971518,0 L5.40284822,0 C2.41904019,0 0,2.41904019 0,5.40284822 L0,44.5971518 C0,47.5809598 2.41904019,50 5.40284822,50 L44.5971518,50 C47.5809598,50 50,47.5809598 50,44.5971518 L50,5.40284822 C50,2.41904019 47.5809598,0 44.5971518,0 Z M37.8589544,18.304721 C37.8784627,18.5895435 37.8784627,18.8763168 37.8784627,19.1640655 C37.8784627,27.9516192 31.1890363,38.0852517 18.9572766,38.0852517 L18.9572766,38.0793991 C15.3443231,38.0842762 11.8055014,37.0493562 8.765119,35.0975419 C9.28989465,35.1609442 9.81857199,35.193133 10.3482247,35.1941085 C13.3427624,35.1970347 16.2514631,34.1923527 18.6061256,32.3419821 C15.7618026,32.288334 13.2647288,30.4321108 12.3936793,27.723371 C13.3905579,27.9155287 14.4176746,27.8765119 15.3960203,27.609247 C12.2932111,26.9830277 10.0624268,24.255755 10.0614514,21.0905189 L10.0614514,21.0066329 C10.986149,21.5216543 12.0210691,21.8074522 13.0793991,21.8386656 C10.1570425,19.8878268 9.25575497,16.0007803 11.0202887,12.9613734 C14.3971908,17.1156847 19.3786578,19.6420211 24.7259071,19.909286 C24.1894265,17.6004682 24.9229419,15.1804526 26.6494343,13.5563792 C29.3269606,11.0378463 33.5397971,11.1666016 36.0583301,13.8451034 C37.5477956,13.5515021 38.9758096,13.0052673 40.2809208,12.2307842 C39.7844323,13.7709715 38.7456106,15.0780336 37.3575888,15.9090909 C38.6753804,15.7530238 39.9629341,15.399922 41.1763558,14.8624659 C40.2838471,16.1978151 39.1601639,17.3634413 37.8589544,18.304721 Z" id="Shape"></path>
          </g>
      </g>
  </g>
</svg>