<svg width="16px" height="16px" viewBox="0 0 16 16" version="1.1" xmlns="http://www.w3.org/2000/svg" xmlns:xlink="http://www.w3.org/1999/xlink">
  <g id="Page-1" stroke="none" stroke-width="1" fill="none" fill-rule="evenodd">
      <g id="Detail" transform="translate(-1195.000000, -356.000000)">
          <rect fill="#1A1A1A" x="0" y="0" width="1440" height="2592"></rect>
          <g id="open_in_new" transform="translate(1193.000000, 354.000000)" fill="#FCFCFD">
              <path d="M17.5,11.25 L17.5,15.8333333 C17.5,16.7538079 16.7538079,17.5 15.8333333,17.5 L4.16666667,17.5 C3.24619208,17.5 2.5,16.7538079 2.5,15.8333333 L2.5,4.16666667 C2.5,3.24619208 3.24619208,2.5 4.16666667,2.5 L8.75,2.5 C8.98011865,2.5 9.16666667,2.68654802 9.16666667,2.91666667 L9.16666667,3.75 C9.16666667,3.98011865 8.98011865,4.16666667 8.75,4.16666667 L4.16666667,4.16666667 L4.16666667,15.8333333 L15.8333333,15.8333333 L15.8333333,11.25 C15.8333333,11.0198814 16.0198814,10.8333333 16.25,10.8333333 L17.0833333,10.8333333 C17.313452,10.8333333 17.5,11.0198814 17.5,11.25 Z M17.3166667,2.91666667 L17.0916667,2.69166667 C16.9800235,2.57535313 16.8277517,2.50668153 16.6666667,2.5 L11.25,2.5 C11.0198814,2.5 10.8333333,2.68654802 10.8333333,2.91666667 L10.8333333,3.75 C10.8333333,3.98011865 11.0198814,4.16666667 11.25,4.16666667 L14.6583333,4.16666667 L7.625,11.2 C7.54611973,11.2782361 7.5017507,11.3847344 7.5017507,11.4958333 C7.5017507,11.6069323 7.54611973,11.7134306 7.625,11.7916667 L8.20833333,12.375 C8.28656942,12.4538803 8.39306769,12.4982493 8.50416667,12.4982493 C8.61526564,12.4982493 8.72176392,12.4538803 8.8,12.375 L15.8333333,5.35 L15.8333333,8.75 C15.8333333,8.98011865 16.0198814,9.16666667 16.25,9.16666667 L17.0833333,9.16666667 C17.313452,9.16666667 17.5,8.98011865 17.5,8.75 L17.5,3.33333333 C17.495531,3.17342476 17.4299159,3.02131708 17.3166667,2.90833333 L17.3166667,2.91666667 Z" id="Icon-color"></path>
          </g>
      </g>
  </g>
</svg>