<svg width="50px" height="50px" viewBox="0 0 50 50" version="1.1" xmlns="http://www.w3.org/2000/svg" xmlns:xlink="http://www.w3.org/1999/xlink">
  <g id="Page-1" stroke="none" stroke-width="1" fill="none" fill-rule="evenodd">
      <g id="Detail" transform="translate(-765.000000, -621.000000)" fill="#353535" fill-rule="nonzero">
          <path d="M809.597152,621 C812.58096,621 815,623.41904 815,626.402848 L815,626.402848 L815,665.597152 C815,668.58096 812.58096,671 809.597152,671 L809.597152,671 L770.402848,671 C767.41904,671 765,668.58096 765,665.597152 L765,665.597152 L765,626.402848 C765,623.41904 767.41904,621 770.402848,621 L770.402848,621 Z M785.6838,641.189642 L779.887562,646.985391 C777.370813,649.50214 777.370813,653.596619 779.887562,656.113368 C781.077573,657.303867 782.745639,657.995802 784.428355,658.001699 C786.127185,658.007522 787.813807,657.31461 789.015538,656.113368 L792.075288,653.053618 C791.64118,653.126376 791.199748,653.163488 790.752945,653.163488 C789.8818,653.163488 789.022863,653.022366 788.200549,652.743541 C787.975438,652.667365 787.755699,652.581422 787.540354,652.48669 L786.516881,653.510482 C786.483732,653.543679 786.464607,653.56286 786.464607,653.562925 C785.959695,654.067838 785.260923,654.369613 784.547503,654.394029 C783.769137,654.420397 782.987353,654.115692 782.438004,653.562437 C781.328076,652.452509 781.328076,650.64625 782.438004,649.535834 L788.516485,643.519368 C788.642469,643.391919 788.795799,643.294745 788.955476,643.214174 C789.685499,642.845012 790.576665,642.81083 791.332568,643.12286 C792.110934,643.44368 792.751597,644.136592 792.978661,644.951581 C792.980614,644.958417 792.982567,644.965254 792.984521,644.97209 C792.984521,644.97209 793.048376,644.908234 793.156446,644.800165 L793.349254,644.607356 C793.643998,644.312613 794.076309,643.880301 794.489047,643.467563 L794.792475,643.164135 C794.841617,643.114994 794.889838,643.066772 794.936833,643.019777 L795.201629,642.754981 C795.24249,642.71412 795.281511,642.6751 795.318384,642.638227 L795.5114,642.44521 C795.619626,642.336985 795.683672,642.272938 795.683897,642.272713 C795.755191,642.200931 794.90309,641.286815 794.816171,641.200384 C794.474842,640.861986 794.095426,640.561187 793.688663,640.304824 C792.875139,639.792587 791.949304,639.455653 790.993193,639.344319 C789.06974,639.120673 787.049603,639.813096 785.6838,641.189642 Z M796.600455,633.000197 C794.883558,632.986524 793.203772,633.685296 791.984462,634.888491 L788.924712,637.948729 C789.35882,637.875971 789.80074,637.838371 790.247055,637.838371 C791.118689,637.838371 791.977137,637.979981 792.799451,638.258318 C793.024562,638.334494 793.244301,638.420436 793.459646,638.515169 L794.535393,637.439422 C795.037375,636.935974 795.734193,636.634199 796.444196,636.608319 C797.226957,636.579508 798.008252,636.885679 798.561996,637.439422 C799.671924,638.549839 799.671924,640.355608 798.561996,641.466025 L796.355324,643.671721 L792.765758,647.261775 C792.067963,647.95957 791.006866,648.250114 790.050755,648.006936 C789.21721,647.795009 788.495,647.183645 788.1483,646.39649 C788.107282,646.303223 788.071635,646.208002 788.04136,646.110828 L785.370793,648.798486 C785.619831,649.171066 785.908422,649.51679 786.228265,649.830773 C786.944616,650.533939 787.820644,651.077428 788.775778,651.389458 C788.947663,651.445614 789.12199,651.494445 789.298269,651.534974 C791.355031,652.010588 793.628113,651.400201 795.167754,649.95578 L795.180101,649.943664 L795.180101,649.943664 L795.317547,649.806883 C795.340634,649.783867 795.366189,649.758383 795.394073,649.730569 L795.588233,649.536819 C795.661537,649.463649 795.743057,649.38226 795.83169,649.293753 L796.117829,649.007986 C796.372226,648.753892 796.664193,648.462206 796.976505,648.150154 L797.756299,647.370943 C797.956603,647.170773 798.159272,646.968233 798.360583,646.767041 L799.522398,645.605846 C799.884398,645.24402 800.211205,644.917354 800.473052,644.655612 L800.975116,644.153742 C801.01942,644.109454 801.053751,644.075135 801.077005,644.051888 L801.112438,644.016467 L801.112438,644.016467 C803.629187,641.499718 803.629187,637.40524 801.112438,634.888491 C799.929752,633.704828 798.273405,633.01387 796.600455,633.000197 Z" id="Combined-Shape"></path>
      </g>
  </g>
</svg>