<?xml version="1.0" encoding="UTF-8"?>
<svg width="15px" height="15px" viewBox="0 0 15 15" version="1.1" xmlns="http://www.w3.org/2000/svg" xmlns:xlink="http://www.w3.org/1999/xlink">
    <title>price-tag</title>
    <g id="Page-1" stroke="none" stroke-width="1" fill="none" fill-rule="evenodd">
        <g id="Detail-1" transform="translate(-966.000000, -322.000000)" fill="#767F92" fill-rule="nonzero">
            <g id="Frame-1087" transform="translate(869.000000, 316.000000)">
                <g id="price-tag" transform="translate(97.000000, 6.000000)">
                    <path d="M13.7499474,0 L8.55454767,0 C8.21086101,0 7.73050535,0.19910755 7.48767251,0.441757288 L0.364771111,7.56462206 C-0.12159037,8.05043423 -0.12159037,8.84693767 0.364771111,9.33216391 L5.66834878,14.6355585 C6.15361164,15.1213706 6.94934604,15.1213706 7.43534132,14.6350092 L14.5582427,7.51324301 C14.8008558,7.2706299 15,6.7895052 15,6.44655096 L15,1.25005264 C15,0.562679328 14.4372841,0 13.7499474,0 Z M11.2498055,5.00002747 C10.5594292,5.00002747 9.99975281,4.43976511 9.99975281,3.74997482 C9.99975281,3.05904929 10.5594292,2.49992218 11.2498055,2.49992218 C11.9401817,2.49992218 12.5000412,3.05904929 12.5000412,3.74997482 C12.5000778,4.43976511 11.9401817,5.00002747 11.2498055,5.00002747 Z" id="Shape"></path>
                </g>
            </g>
        </g>
    </g>
</svg>