<?xml version="1.0" encoding="UTF-8"?>
<svg width="15px" height="12px" viewBox="0 0 15 12" version="1.1" xmlns="http://www.w3.org/2000/svg" xmlns:xlink="http://www.w3.org/1999/xlink">
    <title>discord-2</title>
    <g id="Page-1" stroke="none" stroke-width="1" fill="none" fill-rule="evenodd">
        <g id="Home-Sol" transform="translate(-315.000000, -4235.000000)" fill="#FFFFFF" fill-rule="nonzero">
            <g id="button" transform="translate(219.000000, 4215.000000)">
                <g id="discord-2" transform="translate(96.000000, 20.000000)">
                    <path d="M12.6981817,0.947770065 C11.7421357,0.509107433 10.7169196,0.185903923 9.64497496,0.000776749084 C9.62546322,-0.00279747393 9.60595148,0.0061380836 9.59590264,0.0239799017 C9.46403725,0.258501666 9.31799215,0.564419999 9.21571664,0.804889035 C8.06279535,0.632271642 6.91576273,0.632271642 5.78648404,0.804889035 C5.68417923,0.559087961 5.53283139,0.258501666 5.40038006,0.0239799017 C5.39033122,0.0067240218 5.37081948,-0.00221153573 5.35130774,0.000776749084 C4.27997834,0.185288688 3.25476227,0.508492198 2.29810098,0.947770065 C2.28980995,0.951344288 2.2827201,0.957291561 2.2780033,0.965025945 C0.333391604,3.87025402 -0.199343406,6.70408552 0.0619850302,9.50276073 C0.0631569066,9.51644238 0.0708619939,9.5295381 0.0814967722,9.53785843 C1.36449635,10.4800763 2.60732986,11.0520692 3.82704811,11.4312298 C3.84655985,11.4371771 3.86724347,11.4300579 3.87966536,11.4139739 C4.16818133,11.0199598 4.4253789,10.6045003 4.64589674,10.1675955 C4.65890457,10.1420193 4.64648268,10.1116677 4.61988109,10.101531 C4.21192162,9.94678469 3.82347389,9.7580833 3.4497918,9.543835 C3.42023122,9.52657912 3.41785817,9.48430367 3.445075,9.46405951 C3.52370791,9.40514342 3.60237011,9.34382499 3.67745809,9.28192062 C3.69105185,9.27061201 3.70997766,9.26823896 3.72594447,9.27535811 C6.18079115,10.39617 8.83846033,10.39617 11.2643324,9.27535811 C11.2802992,9.26762373 11.299225,9.27002608 11.3134047,9.28130539 C11.388522,9.34320976 11.4671549,9.40511413 11.5463737,9.46403021 C11.5735612,9.48427438 11.5717741,9.52654982 11.5422429,9.5438057 C11.1685608,9.76224346 10.780113,9.9467554 10.3715676,10.1009157 C10.344966,10.1110232 10.3331301,10.14199 10.3461672,10.1675662 C10.5714311,10.6038558 10.8286287,11.0193153 11.1118127,11.4133587 C11.1236486,11.4300286 11.1449182,11.4371771 11.1644299,11.4312005 C12.3900661,11.0520692 13.6328996,10.480047 14.9158992,9.53782913 C14.9271492,9.52950881 14.9342391,9.51699903 14.935411,9.50331737 C15.2481848,6.26773734 14.4115529,3.45713829 12.7176349,0.965582586 C12.7135333,0.957291561 12.7064435,0.951344288 12.6981817,0.947770065 Z M5.01254757,7.79864737 C4.27347442,7.79864737 3.66447956,7.12013094 3.66447956,6.28680963 C3.66447956,5.45348832 4.26163847,4.77497189 5.01254757,4.77497189 C5.76931605,4.77497189 6.37242224,5.45946489 6.36058629,6.28680963 C6.36058629,7.12013094 5.76339807,7.79864737 5.01254757,7.79864737 Z M9.99674296,7.79864737 C9.25769911,7.79864737 8.64870425,7.12013094 8.64870425,6.28680963 C8.64870425,5.45348832 9.24586316,4.77497189 9.99674296,4.77497189 C10.7535407,4.77497189 11.3566176,5.45946489 11.344811,6.28680963 C11.344811,7.12013094 10.75357,7.79864737 9.99674296,7.79864737 Z" id="Shape"></path>
                </g>
            </g>
        </g>
    </g>
</svg>