<?xml version="1.0" encoding="UTF-8"?>
<svg width="22px" height="10px" viewBox="0 0 22 10" version="1.1" xmlns="http://www.w3.org/2000/svg" xmlns:xlink="http://www.w3.org/1999/xlink">
    <title>infinity</title>
    <g id="Page-1" stroke="none" stroke-width="1" fill="none" fill-rule="evenodd">
        <g id="Borrow--Crypto-backed-Loans-Copy-2" transform="translate(-1070.000000, -371.000000)" fill="#000000" fill-rule="nonzero">
            <g id="Group-9" transform="translate(886.000000, 204.000000)">
                <g id="Group-33" transform="translate(21.000000, 126.000000)">
                    <g id="Icon-color" transform="translate(162.000000, 34.000000)">
                        <path d="M18,7 C16.168149,7.07656143 14.4431734,7.88323059 13.21,9.24 C13.5,9.56 13.79,9.87 14.07,10.19 C14.35,10.51 14.39,10.54 14.55,10.72 C15.4306793,9.71737802 16.6692595,9.09988297 18,9 C19.6568542,9 21,10.3431458 21,12 C21,13.6568542 19.6568542,15 18,15 C16.2,15 14.77,13.62 13.33,12 L13.33,12 L12.75,11.34 L12,10.49 L12,10.49 C10.35,8.66 8.56,7 6,7 C3.23857625,7 1,9.23857625 1,12 C1,14.7614237 3.23857625,17 6,17 C8.56,17 10.35,15.34 12,13.51 C13.65,15.34 15.44,17 18,17 C20.7614237,17 23,14.7614237 23,12 C23,9.23857625 20.7614237,7 18,7 Z M6,15 C4.34314575,15 3,13.6568542 3,12 C3,10.3431458 4.34314575,9 6,9 C7.8,9 9.23,10.38 10.67,12 C9.23,13.62 7.8,15 6,15 Z"></path>
                    </g>
                </g>
            </g>
        </g>
    </g>
</svg>