<svg width="30px" height="30px" viewBox="0 0 30 30" version="1.1" xmlns="http://www.w3.org/2000/svg" xmlns:xlink="http://www.w3.org/1999/xlink">
    <g id="Page-1" stroke="none" stroke-width="1" fill="none" fill-rule="evenodd">
        <g id="Blog-SOL" transform="translate(-1130.000000, -2258.000000)" fill="#696969" fill-rule="nonzero">
            <g id="Footer/Desktop/Dark" transform="translate(0.000000, 2178.000000)">
                <g id="Footer-05/Desktop/Light" transform="translate(0.000000, 1.000000)">
                    <g id="discord-3" transform="translate(1130.000000, 79.000000)">
                        <path d="M11.3439,14.046 L11.3439,14.0361 C10.19568,14.0361 9.2691,14.9853 9.2691,16.15194 C9.2691,17.31858 10.19568,18.26784 11.3439,18.26784 C12.49212,18.26784 13.41876,17.31864 13.41876,16.16184 C13.41876,14.99508 12.48204,14.046 11.3439,14.046 L11.3439,14.046 Z" id="Path"></path>
                        <path d="M15,0 C6.71574,0 0,6.71574 0,15 C0,23.28426 6.71574,30 15,30 C23.28426,30 30,23.28426 30,15 C30,6.71574 23.28426,0 15,0 Z M20.54964,22.91466 C20.54964,22.91466 19.794,22.074 19.25034,21.3327 C21.86904,20.59116 22.85634,19.10814 22.85634,19.10814 C20.1336,20.79156 17.59074,21.43926 15,21.35508 C12.40926,21.43908 9.8664,20.79156 7.14396,19.10814 C7.14396,19.10814 8.13096,20.59116 10.74996,21.3327 C10.20612,22.07424 9.45072,22.91466 9.45072,22.91466 C4.95834,22.81578 3.216,20.06718 3.1152,20.1858 C3.1152,14.0658 6.0864,9.08256 6.0864,9.08256 C8.74536,7.17456 11.22306,7.09524 11.6964,7.08534 L11.99862,7.37208 C8.60436,8.32122 6.96264,9.8043 6.96264,9.8043 C9.87582,8.39724 12.62154,7.9023 15,7.87266 C17.37852,7.90266 20.124,8.39724 23.03736,9.8043 C23.03736,9.8043 21.39564,8.32122 18.00144,7.37208 L18.3036,7.08534 C18.777,7.09524 21.25464,7.17432 23.9136,9.08256 C23.9136,9.08256 26.88474,14.06568 26.88474,20.1858 C26.784,20.06718 25.04166,22.81578 20.54964,22.91466 L20.54964,22.91466 Z" id="Shape"></path>
                        <path d="M18.6561,14.03598 L18.6561,14.04588 C17.51796,14.04588 16.58124,14.99508 16.58124,16.16172 C16.58124,17.31852 17.50794,18.26772 18.6561,18.26772 C19.80426,18.26772 20.7309,17.31852 20.7309,16.15182 C20.7309,14.98512 19.80432,14.03598 18.6561,14.03598 Z" id="Path"></path>
                    </g>
                </g>
            </g>
        </g>
    </g>
</svg>