<svg width="30px" height="30px" viewBox="0 0 30 30" version="1.1" xmlns="http://www.w3.org/2000/svg" xmlns:xlink="http://www.w3.org/1999/xlink">
  <g id="Page-1" stroke="none" stroke-width="1" fill="none" fill-rule="evenodd">
      <g id="Home-Sol-Copy-5" transform="translate(-1381.000000, -949.000000)" fill="#696969" fill-rule="nonzero">
          <g id="Group-4" transform="translate(1381.000000, 869.000000)">
              <g id="telegram-2" transform="translate(0.000000, 80.000000)">
                  <path d="M15,0 C6.71574,0 0,6.71574 0,15 C0,23.28426 6.71574,30 15,30 C23.28426,30 30,23.28426 30,15 C30,6.71574 23.28426,0 15,0 Z M24.5208,6.26874 L20.77938,23.82366 C20.7619625,23.8920726 20.711471,23.9472336 20.6448617,23.9706186 C20.5782524,23.9940037 20.5043603,23.9825277 20.448,23.94 L14.5518,19.74918 L11.26032,22.86918 C11.2036235,22.9137364 11.1293328,22.9291704 11.0595805,22.910884 C10.9898282,22.8925976 10.9326647,22.8427013 10.90512,22.77606 L8.65542,16.2336 L2.4987,14.34774 C2.41363093,14.3191809 2.3563118,14.239475 2.3563118,14.14974 C2.3563118,14.060005 2.41363093,13.9802991 2.4987,13.95174 C13.84128,9.78426 22.4133,6.68766 24.2367,6.03576 C24.40242,5.9661 24.54444,6.10578 24.5208,6.26874 Z" id="Shape"></path>
                  <path d="M20.3058,9.22565654 C20.28234,9.22248 16.7778,11.41416 9.8157,15.76794 L11.28384,20.5176 L11.592,17.514 C17.58272,12.1824 20.58204,9.50498 20.58996,9.48174 C20.7321,9.342 20.4006,9.23838 20.3058,9.22565654 Z" id="Path"></path>
              </g>
          </g>
      </g>
  </g>
</svg>