<svg width="18px" height="18px" viewBox="0 0 18 18" version="1.1" xmlns="http://www.w3.org/2000/svg" xmlns:xlink="http://www.w3.org/1999/xlink">
  <g id="Page-1" stroke="none" stroke-width="1" fill="none" fill-rule="evenodd">
      <g id="Home-Sol-Copy-5" transform="translate(-1060.000000, -31.000000)">
          <g id="small-search-box/default" fill="#B1B5C3" transform="translate(1044.000000, 20.000000)">
              <g id="icons/Search/Line" transform="translate(15.000000, 10.000000)">
                  <path d="M8.33333333,15 C4.65143522,15 1.66666667,12.0152315 1.66666667,8.33333333 C1.66666667,4.65143522 4.65143522,1.66666667 8.33333333,1.66666667 C12.0152315,1.66666667 15,4.65143522 15,8.33333333 C15,9.87392584 14.4774326,11.2924663 13.5998813,12.4213696 L18.0892563,16.9107437 C18.4146929,17.2361819 18.4146929,17.7638181 18.0892563,18.0892563 C17.7638181,18.4146929 17.2361819,18.4146929 16.9107437,18.0892563 L12.4213696,13.5998813 C11.2924663,14.4774326 9.87392584,15 8.33333333,15 Z M8.33333333,13.3333333 C5.57190975,13.3333333 3.33333333,11.0947569 3.33333333,8.33333333 C3.33333333,5.57190975 5.57190975,3.33333333 8.33333333,3.33333333 C11.0947569,3.33333333 13.3333333,5.57190975 13.3333333,8.33333333 C13.3333333,11.0947569 11.0947569,13.3333333 8.33333333,13.3333333 Z" id="Shape"></path>
              </g>
          </g>
      </g>
  </g>
</svg>