<?xml version="1.0" encoding="UTF-8"?>
<svg width="559px" height="278px" viewBox="0 0 559 278" version="1.1" xmlns="http://www.w3.org/2000/svg" xmlns:xlink="http://www.w3.org/1999/xlink">
    <title>Browser window</title>
    <defs>
        <path d="M3.77005339,0 L555.229947,0 C557.31209,-8.26572672e-16 559,1.6879104 559,3.77005339 L559,274.229947 C559,276.31209 557.31209,278 555.229947,278 L3.77005339,278 C1.6879104,278 -2.85363549e-15,276.31209 0,274.229947 L0,3.77005339 C-6.99078185e-16,1.6879104 1.6879104,-2.2820518e-15 3.77005339,0 Z" id="path-1"></path>
        <polygon id="path-3" points="-1.05024161e-30 1.98741884e-29 27.3897632 3.58793858e-19 27.3897632 11.6226403 1.5221556e-19 11.6226403"></polygon>
        <path d="M4.97995684,2.49056601 C4.97995684,1.11506436 3.86515555,0 2.48997842,0 C1.11480129,0 0,1.11506436 0,2.49056601 C0,3.86606765 1.11480129,4.98113202 2.48997842,4.98113202 C3.86515555,4.98113202 4.97995684,3.86606765 4.97995684,2.49056601 Z" id="path-5"></path>
        <mask id="mask-6" maskContentUnits="userSpaceOnUse" maskUnits="objectBoundingBox" x="0" y="0" width="4.97995684" height="4.98113202" fill="white">
            <use xlink:href="#path-5"></use>
        </mask>
        <path d="M13.2803479,2.49056601 C13.2803479,1.11506436 12.1655466,0 10.7903694,0 C9.41519232,0 8.30039102,1.11506436 8.30039102,2.49056601 C8.30039102,3.86606765 9.41519232,4.98113202 10.7903694,4.98113202 C12.1655466,4.98113202 13.2803479,3.86606765 13.2803479,2.49056601 Z" id="path-7"></path>
        <mask id="mask-8" maskContentUnits="userSpaceOnUse" maskUnits="objectBoundingBox" x="0" y="0" width="4.97995684" height="4.98113202" fill="white">
            <use xlink:href="#path-7"></use>
        </mask>
        <path d="M21.5804701,2.49056601 C21.5804701,1.11506436 20.4656689,0 19.0904917,0 C17.7153146,0 16.6005133,1.11506436 16.6005133,2.49056601 C16.6005133,3.86606765 17.7153146,4.98113202 19.0904917,4.98113202 C20.4656689,4.98113202 21.5804701,3.86606765 21.5804701,2.49056601 Z" id="path-9"></path>
        <mask id="mask-10" maskContentUnits="userSpaceOnUse" maskUnits="objectBoundingBox" x="0" y="0" width="4.97995684" height="4.98113202" fill="white">
            <use xlink:href="#path-9"></use>
        </mask>
        <polygon id="path-11" points="8.88846337e-31 2.77295224e-29 262.031263 3.43249437e-18 262.031263 11.6226414 1.52215573e-19 11.6226414"></polygon>
    </defs>
    <g id="Page-1" stroke="none" stroke-width="1" fill="none" fill-rule="evenodd">
        <g id="MCT" transform="translate(-138.000000, -5648.000000)">
            <g id="Frame" transform="translate(-74.121038, 5451.424880)">
                <g id="Browser-window" transform="translate(212.121038, 195.963900)">
                    <mask id="mask-2" fill="white">
                        <use xlink:href="#path-1"></use>
                    </mask>
                    <g id="Browser-window-(Background/Mask)" transform="translate(279.500000, 139.000000) rotate(0.000000) translate(-279.500000, -139.000000) "></g>
                    <path d="M-0.000244140625,14.4531329 L558.999731,14.4531329 L558.999731,317 L-0.000244140625,317 L-0.000244140625,14.4531329 Z" id="Rectangle" fill="#252836" mask="url(#mask-2)" transform="translate(279.499744, 165.726566) rotate(0.000000) translate(-279.499744, -165.726566) "></path>
                    <g id="Frame" mask="url(#mask-2)">
                        <g transform="translate(0.000000, -0.388780)">
                            <path d="M0,0 L559,0 L559,22 L0,22 L0,0 Z" id="Frame-(Background)" transform="translate(279.500000, 11.000000) rotate(0.000000) translate(-279.500000, -11.000000) "></path>
                            <g id="Frame" stroke-width="1" fill-rule="evenodd" transform="translate(0.000000, 1.000000)">
                                <path d="M3.77005339,0 L555.229947,0 C557.31209,-3.82483462e-16 559,1.6879104 559,3.77005339 L559,22 L559,22 L0,22 L0,3.77005339 C-2.54988975e-16,1.6879104 1.6879104,-9.49784167e-16 3.77005339,0 Z" id="Frame-(Background)" fill="#2F3142" transform="translate(279.500000, 11.000000) rotate(0.000000) translate(-279.500000, -11.000000) "></path>
                                <g transform="translate(55.609610, 4.981517)">
                                    <mask id="mask-4" fill="white">
                                        <use xlink:href="#path-3"></use>
                                    </mask>
                                    <g id="Frame-(Background/Mask)" transform="translate(13.694882, 5.811320) rotate(0.000000) translate(-13.694882, -5.811320) "></g>
                                    <g mask="url(#mask-4)">
                                        <path d="M2.26203251,0 L11.4328491,0 C12.6821351,-2.29490126e-16 13.6948816,1.01274645 13.6948816,2.26203251 L13.6948816,9.36060781 C13.6948816,10.6098939 12.6821351,11.6226403 11.4328491,11.6226403 L2.26203251,11.6226403 C1.01274645,11.6226403 1.52993417e-16,10.6098939 0,9.36060781 L0,2.26203251 C-1.52993417e-16,1.01274645 1.01274645,6.73579336e-16 2.26203251,0 Z" id="Frame-(Background)" transform="translate(6.847441, 5.811320) rotate(0.000000) translate(-6.847441, -5.811320) "></path>
                                        <path d="M5.26271752,6.04594121 C5.19726643,5.98047468 5.16281849,5.90122571 5.16281849,5.81508552 C5.16281849,5.72549973 5.20071123,5.63935955 5.26616232,5.58422983 L7.99443927,2.91388416 C8.05300077,2.85530883 8.12878624,2.82085276 8.21835089,2.82085276 C8.39748018,2.82085276 8.53182715,2.95867705 8.53182715,3.13784863 C8.53182715,3.22054321 8.49737921,3.30323778 8.4422625,3.36181311 L5.93445238,5.81508552 L8.4422625,8.26835794 C8.49737921,8.32693326 8.53182715,8.40618223 8.53182715,8.49232241 C8.53182715,8.671494 8.39748018,8.80587268 8.21835089,8.80587268 C8.12878624,8.80587268 8.05300077,8.77141661 7.99443927,8.71284128 L5.26271752,6.04594121 Z" id="Vector" fill="#B1B1B5" fill-rule="nonzero" transform="translate(6.847323, 5.813363) rotate(0.000000) translate(-6.847323, -5.813363) "></path>
                                    </g>
                                    <g mask="url(#mask-4)" fill="#F3F4F8" fill-rule="nonzero" id="Vector">
                                        <g transform="translate(18.857416, 2.820853)">
                                            <path d="M0.537387884,5.89543418 L3.26910963,3.22508848 C3.33456072,3.15962194 3.36900866,3.08037297 3.36900866,2.99423279 C3.36900866,2.904647 3.33456072,2.82195242 3.26910963,2.7633771 L0.540832678,0.0964770058 C0.478826384,0.0344560735 0.403040913,0 0.313476266,0 C0.134346971,0 0,0.137824294 0,0.316995876 C0,0.399690453 0.0344479413,0.482385029 0.0895646474,0.540960354 L2.59737477,2.99423279 L0.0895646474,5.44750522 C0.0344479413,5.50608055 0,5.58532952 0,5.6714697 C0,5.85064128 0.134346971,5.98846558 0.313476266,5.98846558 C0.403040913,5.98846558 0.478826384,5.9540095 0.537387884,5.89543418 Z" transform="translate(1.684504, 2.994233) rotate(0.000000) translate(-1.684504, -2.994233) "></path>
                                        </g>
                                    </g>
                                </g>
                                <g transform="translate(38.179219, 4.981517)">
                                    <path d="M2.26203251,0 L11.4328491,0 C12.6821351,-2.29490126e-16 13.6948816,1.01274645 13.6948816,2.26203251 L13.6948816,9.36060781 C13.6948816,10.6098939 12.6821351,11.6226403 11.4328491,11.6226403 L2.26203251,11.6226403 C1.01274645,11.6226403 1.52993417e-16,10.6098939 0,9.36060781 L0,2.26203251 C-1.52993417e-16,1.01274645 1.01274645,2.29490126e-16 2.26203251,0 Z" id="Frame-(Background)" transform="translate(6.847441, 5.811320) rotate(0.000000) translate(-6.847441, -5.811320) "></path>
                                    <path d="M9.82775487,8.99110486 C10.5511618,8.99110486 10.9094204,8.63276169 10.9094204,7.92296655 L10.9094204,3.71587985 C10.9094204,3.00608471 10.5511618,2.64774154 9.82775487,2.64774154 L3.86825995,2.64774154 C3.14829784,2.64774154 2.7865944,3.0026391 2.7865944,3.71587985 L2.7865944,7.92296655 C2.7865944,8.63620729 3.14829784,8.99110486 3.86825995,8.99110486 L9.82775487,8.99110486 Z M2.7865944,8.33547086 L2.7865944,3.30337553 C2.7865944,2.86907021 3.52994786,2.64774154 4.88149961,2.64774154 L10.9094204,2.64774154 L10.9094204,8.99110486 L4.88149961,8.99110486 C3.52994786,8.99110486 2.7865944,8.76977619 2.7865944,8.33547086 Z M10.9094204,3.30337553 L10.9094204,8.33547086 C10.9094204,8.76977619 10.5534906,8.99110486 9.92425764,8.99110486 L2.7865944,8.99110486 L2.7865944,2.64774154 L9.92425764,2.64774154 C10.5534906,2.64774154 10.9094204,2.86907021 10.9094204,3.30337553 Z M10.9094204,5.8194232 C10.9094204,4.12030802 10.2655379,2.64774154 9.49783175,2.64774154 L4.19818306,2.64774154 C3.45524166,2.64774154 2.7865944,4.12030802 2.7865944,5.8194232 C2.7865944,7.4619012 3.45524166,8.99110486 4.19818306,8.99110486 L9.49783175,8.99110486 C10.2655379,8.99110486 10.9094204,7.4619012 10.9094204,5.8194232 Z M10.9094204,5.76278603 C10.9094204,4.06367085 10.2655379,2.64774154 9.49783175,2.64774154 L4.19818306,2.64774154 C3.45524166,2.64774154 2.7865944,4.06367085 2.7865944,5.76278603 C2.7865944,7.4619012 3.45524166,8.99110486 4.19818306,8.99110486 L9.49783175,8.99110486 C10.2655379,8.99110486 10.9094204,7.4619012 10.9094204,5.76278603 Z M10.9094204,5.84799691 C10.9094204,4.13357439 10.2655379,2.64774154 9.49783175,2.64774154 L4.19818306,2.64774154 C3.45524166,2.64774154 2.7865944,4.13357439 2.7865944,5.84799691 C2.7865944,7.56241943 3.45524166,8.99110486 4.19818306,8.99110486 L9.49783175,8.99110486 C10.2655379,8.99110486 10.9094204,7.56241943 10.9094204,5.84799691 Z" id="Vector" fill="#B1B1B5"></path>
                                </g>
                                <g transform="translate(8.714524, 8.301812)">
                                    <path d="M0,0 L21.579814,0 L21.579814,4.98113202 L0,4.98113202 L0,0 Z" id="Frame-(Background)" transform="translate(10.789907, 2.490566) rotate(0.000000) translate(-10.789907, -2.490566) "></path>
                                    <use id="Vector" stroke="#ED5158" mask="url(#mask-6)" stroke-width="0.377005398" fill="#ED5158" stroke-dasharray="0,0" transform="translate(2.489978, 2.490566) rotate(0.000000) translate(-2.489978, -2.490566) " xlink:href="#path-5"></use>
                                    <use id="Vector" stroke="#FFA561" mask="url(#mask-8)" stroke-width="0.377005398" fill="#FFA561" stroke-dasharray="0,0" transform="translate(10.790369, 2.490566) rotate(0.000000) translate(-10.790369, -2.490566) " xlink:href="#path-7"></use>
                                    <use id="Vector" stroke="#00D764" mask="url(#mask-10)" stroke-width="0.377005398" fill="#61C454" stroke-dasharray="0,0" transform="translate(19.090492, 2.490566) rotate(0.000000) translate(-19.090492, -2.490566) " xlink:href="#path-9"></use>
                                </g>
                                <g transform="translate(148.484444, 4.981517)">
                                    <mask id="mask-12" fill="white">
                                        <use xlink:href="#path-11"></use>
                                    </mask>
                                    <g id="Frame-(Background/Mask)" transform="translate(131.015631, 5.811321) rotate(0.000000) translate(-131.015631, -5.811321) "></g>
                                    <g mask="url(#mask-12)" fill="#252836" id="Frame-(Background)">
                                        <g transform="translate(17.429854, 0.000538)">
                                            <path d="M2.26203251,0 L224.428557,0 C225.677843,-1.5763735e-14 226.69059,1.01274645 226.69059,2.26203251 L226.69059,9.36060781 C226.69059,10.6098939 225.677843,11.6226403 224.428557,11.6226403 L2.26203251,11.6226403 C1.01274645,11.6226403 -2.95563105e-15,10.6098939 0,9.36060781 L0,2.26203251 C-1.52993417e-16,1.01274645 1.01274645,2.29490126e-16 2.26203251,0 Z" transform="translate(113.345295, 5.811320) rotate(0.000000) translate(-113.345295, -5.811320) "></path>
                                        </g>
                                    </g>
                                </g>
                            </g>
                        </g>
                    </g>
                </g>
            </g>
        </g>
    </g>
</svg>