<svg width="20px" height="12px" viewBox="0 0 20 12" version="1.1" xmlns="http://www.w3.org/2000/svg" xmlns:xlink="http://www.w3.org/1999/xlink">
  <g id="Page-1" stroke="none" stroke-width="1" fill="none" fill-rule="evenodd">
      <g id="Group-4-Copy" transform="translate(-13.000000, -16.000000)" fill="#777E90" fill-rule="nonzero">
          <g id="swap_horizontal" transform="translate(12.000000, 11.000000)">
              <path d="M20.0326843,8.58 L17.2826843,11.33 C17.1514781,11.4662637 16.9500371,11.5079229 16.7755448,11.4348797 C16.6010525,11.3618364 16.4893595,11.1890978 16.494351,11 L16.494351,9.16666667 L9.61935101,9.16666667 C9.3662205,9.16666667 9.16101768,8.96146384 9.16101768,8.70833333 L9.16101768,7.79166667 C9.16101768,7.53853616 9.3662205,7.33333333 9.61935101,7.33333333 L16.494351,7.33333333 L16.494351,5.5 C16.4932641,5.31496683 16.6035447,5.14742924 16.7739295,5.07526629 C16.9443142,5.00310333 17.1413784,5.04047135 17.2735177,5.17 L20.0235177,7.92 C20.2078844,8.0999027 20.2119836,8.39504639 20.0326843,8.58 Z M12.369351,12.8333333 L5.49435101,12.8333333 L5.49435101,11 C5.49543793,10.8149668 5.3851573,10.6474292 5.21477255,10.5752663 C5.04438779,10.5031033 4.84732361,10.5404714 4.71518435,10.67 L1.96518435,13.42 C1.789383,13.6013292 1.789383,13.8895041 1.96518435,14.0708333 L4.71518435,16.8208333 C4.84613032,16.9492215 5.04100032,16.9871971 5.21057322,16.917373 C5.38014612,16.8475488 5.49177515,16.6833678 5.49435101,16.5 L5.49435101,14.6666667 L12.369351,14.6666667 C12.6224815,14.6666667 12.8276843,14.4614638 12.8276843,14.2083333 L12.8276843,13.2916667 C12.8276843,13.0385362 12.6224815,12.8333333 12.369351,12.8333333 Z" id="Icon-color"></path>
          </g>
      </g>
  </g>
</svg>