<svg width="19px" height="22px" viewBox="0 0 19 22" version="1.1" xmlns="http://www.w3.org/2000/svg" xmlns:xlink="http://www.w3.org/1999/xlink">
  <g id="Page-1" stroke="none" stroke-width="1" fill="none" fill-rule="evenodd">
      <g id="Group-Copy-3" transform="translate(-14.000000, -10.000000)" fill="#777E90" fill-rule="nonzero">
          <g id="documents_outlined" transform="translate(13.000000, 10.000000)">
              <path d="M10.89,16.61 L14.7766667,12.7233333 C15.2925391,12.208103 15.5826915,11.5090996 15.5833333,10.78 L15.5833333,2.75 C15.5833333,1.73747796 14.762522,0.916666667 13.75,0.916666667 L3.66666667,0.916666667 C2.65414463,0.916666667 1.83333333,1.73747796 1.83333333,2.75 L1.83333333,15.5833333 C1.83333333,16.5958554 2.65414463,17.4166667 3.66666667,17.4166667 L8.94666667,17.4166667 C9.67576628,17.4160248 10.3747697,17.1258725 10.89,16.61 Z M8.25,11 L8.25,15.5833333 L3.66666667,15.5833333 L3.66666667,2.75 L13.75,2.75 L13.75,10.0833333 L9.16666667,10.0833333 C8.66040565,10.0833333 8.25,10.493739 8.25,11 Z M17.4166667,4.58333333 L17.4166667,17.4166667 C17.4166667,18.4291887 16.5958554,19.25 15.5833333,19.25 L5.5,19.25 C5.5,20.262522 6.32081129,21.0833333 7.33333333,21.0833333 L15.5833333,21.0833333 C17.6083774,21.0833333 19.25,19.4417107 19.25,17.4166667 L19.25,6.41666667 C19.25,5.40414463 18.4291887,4.58333333 17.4166667,4.58333333 Z" id="Icon-color"></path>
          </g>
      </g>
  </g>
</svg>