<svg width="24px" height="20px" viewBox="0 0 24 20" version="1.1" xmlns="http://www.w3.org/2000/svg" xmlns:xlink="http://www.w3.org/1999/xlink">
  <g id="Page-1" stroke="none" stroke-width="1" fill="none" fill-rule="evenodd">
      <g id="Group-4-Copy-3" transform="translate(-12.000000, -12.000000)" fill="#777E90" fill-rule="nonzero">
          <g id="Group" transform="translate(13.000000, 11.000000)">
              <g id="link_off" transform="translate(11.000000, 11.000000) rotate(-45.000000) translate(-11.000000, -11.000000) ">
                  <path d="M4.01408342,2.8875 C3.9309714,2.79887921 3.81493142,2.74860791 3.6934823,2.74860791 C3.57203318,2.74860791 3.4559932,2.79887921 3.37288118,2.8875 L2.88739947,3.37333333 C2.79884282,3.45650555 2.74860791,3.57262958 2.74860791,3.69416667 C2.74860791,3.81570375 2.79884282,3.93182778 2.88739947,4.015 L7.37581521,8.51583333 L7.37581521,8.51583333 L3.83088278,12.0633333 C3.13831218,12.7522934 2.7492252,13.6894183 2.74999899,14.6666667 L2.74999899,14.9783333 C2.74923462,15.9510864 3.13476222,16.8842773 3.82172275,17.5725 L4.42628487,18.1775 C5.11400947,18.8649581 6.04652493,19.2507649 7.01857396,19.2500011 L7.33001505,19.2500011 C8.30206408,19.2507649 9.23457954,18.8649581 9.92230413,18.1775 L13.4855566,14.6116667 L13.4855566,14.6116667 L17.9831324,19.1033333 C18.0662444,19.1919541 18.1822844,19.2422254 18.3037335,19.2422254 C18.4251826,19.2422254 18.5412226,19.1919541 18.6243346,19.1033333 L19.1098163,18.6175 C19.198373,18.5343278 19.2486079,18.4182038 19.2486079,18.2966667 C19.2486079,18.1751296 19.198373,18.0590056 19.1098163,17.9758333 L4.01408342,2.8875 Z M8.59409948,16.8758333 C8.25886934,17.2134873 7.80555623,17.4074355 7.33001505,17.4166672 L7.01857396,17.4166672 C6.5303034,17.4170538 6.06208009,17.2223694 5.7178494,16.8758333 L5.12244731,16.28 C4.77616201,15.93552 4.58161852,15.4669575 4.58200484,14.9783333 L4.58200484,14.6666667 C4.58161852,14.1780425 4.77616201,13.70948 5.12244731,13.365 L8.67653977,9.80833333 L9.78490365,10.9266667 L7.95289723,12.76 C7.86619173,12.8460597 7.81742112,12.9632078 7.81742112,13.0854167 C7.81742112,13.2076255 7.86619173,13.3247736 7.95289723,13.4108333 L8.59409948,14.0525 C8.68009688,14.1392683 8.7971602,14.1880742 8.91928062,14.1880742 C9.04140104,14.1880742 9.15846435,14.1392683 9.24446176,14.0525 L11.0764682,12.2191667 L12.1848321,13.3191667 L8.59409948,16.8758333 Z M18.166333,4.4275 L17.5617709,3.8225 C16.8740463,3.13504191 15.9415309,2.74923508 14.9694818,2.74999885 L14.6580407,2.74999885 C13.6814996,2.74922564 12.745053,3.13859444 12.0565916,3.83166667 L9.64750317,6.2425 L10.9940279,7.54416667 L13.4031163,5.12416667 C13.7360807,4.78868872 14.1856915,4.59492045 14.6580407,4.58333333 L14.9694818,4.58333333 C15.4577524,4.58294616 15.9259757,4.77763055 16.2702064,5.12416667 L16.8656085,5.72 C17.2118938,6.06448002 17.4064373,6.53304246 17.4060504,7.02166667 L17.4060504,7.33333333 C17.4064373,7.82195754 17.2118938,8.29051998 16.8656085,8.635 L14.45652,11.055 L15.7480846,12.3475 L18.157173,9.93666667 C18.8497436,9.24770663 19.2388306,8.31058174 19.2380579,7.33333333 L19.2380579,7.02166667 C19.2388212,6.04891359 18.8532936,5.11572271 18.166333,4.4275 Z M14.0626386,8.57083333 L13.4214364,7.92916667 C13.335439,7.84239837 13.2183757,7.79359243 13.0962553,7.79359243 C12.9741348,7.79359243 12.8570715,7.84239837 12.7710741,7.92916667 L12.0565916,8.65333333 L13.3481561,9.94583333 L14.0626386,9.22166667 C14.1493441,9.13560698 14.1981148,9.01845887 14.1981148,8.89625 C14.1981148,8.77404113 14.1493441,8.65689302 14.0626386,8.57083333 Z" id="Icon-color"></path>
              </g>
          </g>
      </g>
  </g>
</svg>