<svg width="18px" height="18px" viewBox="0 0 18 18" version="1.1" xmlns="http://www.w3.org/2000/svg" xmlns:xlink="http://www.w3.org/1999/xlink">
  <g id="Page-1" stroke="none" stroke-width="1" fill="none" fill-rule="evenodd">
      <g id="Group-Copy-2" transform="translate(-15.000000, -13.000000)" fill="#777E90" fill-rule="nonzero">
          <g id="settings_vs_outlined" transform="translate(13.000000, 11.000000)">
              <path d="M19.25,9.22166667 L16.7016667,4.63833333 C16.0550569,3.47241672 14.8265495,2.74935235 13.4933333,2.74999957 L8.50666667,2.74999957 C7.17345051,2.74935235 5.94494309,3.47241672 5.29833333,4.63833333 L2.75,9.22166667 C2.13651363,10.3278574 2.13651363,11.6721426 2.75,12.7783333 L5.29833333,17.3616667 C5.94494309,18.5275833 7.17345051,19.2506477 8.50666667,19.2499996 L13.4933333,19.2499996 C14.8265495,19.2506477 16.0550569,18.5275833 16.7016667,17.3616667 L19.25,12.7783333 C19.8634864,11.6721426 19.8634864,10.3278574 19.25,9.22166667 Z M13.4933333,4.58325955 C14.1541908,4.57741745 14.7670845,4.92764242 15.0975,5.5 L17.6458333,10.0833333 C17.9733268,10.6505686 17.9733268,11.3494314 17.6458333,11.9166667 L15.0975,16.5 C14.7670845,17.0723576 14.1541908,17.4225825 13.4933333,17.4167404 L8.50666667,17.4167404 C7.84580919,17.4225825 7.2329155,17.0723576 6.9025,16.5 L4.35416667,11.9166667 C4.04742348,11.3635713 4.04742348,10.6914287 4.35416667,10.1383333 L6.9025,5.5 C7.2329155,4.92764242 7.84580919,4.57741745 8.50666667,4.58325955 L13.4933333,4.58325955 Z M11,8.25 C9.48121694,8.25 8.25,9.48121694 8.25,11 C8.25,12.5187831 9.48121694,13.75 11,13.75 C12.5187831,13.75 13.75,12.5187831 13.75,11 C13.75,9.48121694 12.5187831,8.25 11,8.25 Z" id="Icon-color"></path>
          </g>
      </g>
  </g>
</svg>